<?xml version="1.0" encoding="utf-8"?>
<!-- Generator: Adobe Illustrator 15.1.0, SVG Export Plug-In . SVG Version: 6.00 Build 0)  -->
<!DOCTYPE svg PUBLIC "-//W3C//DTD SVG 1.1//EN" "http://www.w3.org/Graphics/SVG/1.1/DTD/svg11.dtd">
<svg version="1.1" id="Layer_1" xmlns="http://www.w3.org/2000/svg" xmlns:xlink="http://www.w3.org/1999/xlink" x="0px" y="0px"
	 width="12em" height="18em" viewBox="0 0 120 180" enable-background="new 0 0 120 180" xml:space="preserve">
<rect x="16.702" y="16.58" fill="#FFFFFF" width="27.245" height="26.461"/>
<path fill="#43A748" d="M30.002,4.38c-14.148,0-25.619,11.469-25.619,25.619c0,14.148,11.471,25.62,25.619,25.62
	c14.15,0,25.617-11.472,25.617-25.62C55.619,15.849,44.153,4.38,30.002,4.38z M41.114,35.264c1.613,1.614,1.613,4.232,0,5.846
	c-0.812,0.809-1.867,1.212-2.926,1.212c-1.059,0-2.117-0.403-2.924-1.212L30,35.846l-5.264,5.264
	c-0.809,0.809-1.867,1.212-2.926,1.212c-1.057,0-2.115-0.403-2.92-1.212c-1.617-1.613-1.617-4.231,0-5.846l5.262-5.265l-5.262-5.265
	c-1.617-1.616-1.617-4.232,0-5.847c1.611-1.614,4.23-1.614,5.844,0L30,24.152l5.264-5.265c1.617-1.614,4.232-1.614,5.848,0
	c1.613,1.614,1.613,4.231,0,5.847l-5.268,5.265L41.114,35.264z"/>
<rect x="14.289" y="74.282" fill="#FFFFFF" width="31.424" height="32.462"/>
<path fill="#43A748" d="M30,64.377c-14.15,0-25.621,11.469-25.621,25.618c0,14.149,11.471,25.622,25.621,25.622
	c14.148,0,25.619-11.473,25.619-25.622C55.619,75.846,44.149,64.377,30,64.377z M41.578,94.131h-7.445v7.445
	c0,2.283-1.852,4.135-4.133,4.135c-2.285,0-4.133-1.852-4.133-4.135v-7.445h-7.445c-2.283,0-4.133-1.852-4.133-4.133
	c0-2.284,1.85-4.136,4.133-4.136h7.445v-7.443c0-2.284,1.848-4.136,4.133-4.136c2.281,0,4.133,1.852,4.133,4.136v7.443h7.445
	c2.283,0,4.135,1.852,4.135,4.136C45.715,92.279,43.864,94.131,41.578,94.131z"/>
<rect x="14.901" y="135.867" fill="#FFFFFF" width="30.161" height="28.121"/>
<path fill="#43A748" d="M30.002,124.375c-14.148,0-25.619,11.469-25.619,25.619c0,14.146,11.471,25.621,25.619,25.621
	c14.15,0,25.617-11.475,25.617-25.621C55.619,135.844,44.153,124.375,30.002,124.375z M42.772,161.75
	c-1.25,1.252-2.912,1.939-4.682,1.939c-1.768,0-3.432-0.688-4.682-1.939c-1.773-1.773-2.328-4.311-1.664-6.561l-1.838-1.84
	l-1.65,1.652c0.664,2.252,0.107,4.789-1.666,6.564c-1.25,1.25-2.912,1.938-4.682,1.938c-1.768,0-3.43-0.688-4.68-1.938
	c-2.582-2.582-2.582-6.783,0-9.363c1.248-1.252,2.912-1.939,4.68-1.939c0.648,0,1.281,0.096,1.885,0.271l1.648-1.65l0.834-0.83
	l10.826-10.83c1.234-1.229,3.232-1.229,4.465,0c1.232,1.234,1.232,3.232,0,4.467l-7.195,7.193l1.836,1.836
	c0.604-0.178,1.236-0.27,1.883-0.27c1.77,0,3.432,0.688,4.682,1.938C45.356,154.969,45.356,159.168,42.772,161.75z M28.526,143.039
	l-4.463,4.465l-5.682-5.68c-1.23-1.232-1.23-3.23,0-4.465c1.232-1.232,3.232-1.232,4.465,0L28.526,143.039z"/>
<circle fill="#43A748" cx="29.906" cy="148.885" r="1.459"/>
<path fill="#43A748" d="M21.908,154.207c-0.586,0-1.139,0.191-1.598,0.535c-0.102,0.076-0.201,0.158-0.293,0.248
	c-1.043,1.043-1.043,2.742,0,3.783c0.506,0.506,1.178,0.783,1.891,0.783c0.715,0,1.387-0.279,1.891-0.783
	c0.094-0.092,0.174-0.193,0.25-0.291c0.781-1.049,0.701-2.541-0.25-3.492C23.295,154.486,22.623,154.207,21.908,154.207z"/>
<path fill="#43A748" d="M39.518,154.809c-0.422-0.268-0.912-0.416-1.428-0.416c-0.713,0-1.385,0.279-1.891,0.783
	c-0.9,0.902-1.021,2.285-0.369,3.318c0.104,0.166,0.227,0.322,0.369,0.465c0.506,0.504,1.178,0.783,1.891,0.783
	c0.715,0,1.387-0.279,1.891-0.783c1.045-1.043,1.045-2.74,0-3.783C39.844,155.037,39.684,154.914,39.518,154.809z"/>
<path fill="#FFFFFF" d="M90.002,4.38c-14.147,0-25.619,11.469-25.619,25.619c0,14.148,11.472,25.62,25.619,25.62
	c14.149,0,25.616-11.472,25.616-25.62C115.618,15.849,104.153,4.38,90.002,4.38z M101.114,35.264c1.612,1.614,1.612,4.232,0,5.846
	c-0.812,0.809-1.867,1.212-2.926,1.212c-1.06,0-2.117-0.403-2.925-1.212L90,35.846l-5.265,5.264
	c-0.809,0.809-1.867,1.212-2.926,1.212c-1.057,0-2.115-0.403-2.92-1.212c-1.617-1.613-1.617-4.231,0-5.846l5.262-5.265l-5.262-5.265
	c-1.617-1.616-1.617-4.232,0-5.847c1.611-1.614,4.23-1.614,5.844,0L90,24.152l5.264-5.265c1.617-1.614,4.231-1.614,5.849,0
	c1.612,1.614,1.612,4.231,0,5.847l-5.269,5.265L101.114,35.264z"/>
<path fill="#FFFFFF" d="M90,64.377c-14.15,0-25.621,11.469-25.621,25.618c0,14.149,11.471,25.622,25.621,25.622
	c14.147,0,25.618-11.473,25.618-25.622C115.618,75.846,104.149,64.377,90,64.377z M101.577,94.131h-7.444v7.445
	c0,2.283-1.853,4.135-4.133,4.135c-2.285,0-4.134-1.852-4.134-4.135v-7.445h-7.444c-2.283,0-4.134-1.852-4.134-4.133
	c0-2.284,1.851-4.136,4.134-4.136h7.444v-7.443c0-2.284,1.849-4.136,4.134-4.136c2.28,0,4.133,1.852,4.133,4.136v7.443h7.444
	c2.283,0,4.136,1.852,4.136,4.136C105.715,92.279,103.864,94.131,101.577,94.131z"/>
<path fill="#FFFFFF" d="M90.002,124.375c-14.147,0-25.619,11.469-25.619,25.619c0,14.146,11.472,25.621,25.619,25.621
	c14.149,0,25.616-11.475,25.616-25.621C115.618,135.844,104.153,124.375,90.002,124.375z M102.772,161.75
	c-1.25,1.252-2.912,1.939-4.683,1.939c-1.769,0-3.433-0.688-4.683-1.939c-1.772-1.773-2.328-4.311-1.664-6.561l-1.838-1.84
	l-1.649,1.652c0.664,2.252,0.106,4.789-1.666,6.564c-1.25,1.25-2.912,1.938-4.683,1.938c-1.768,0-3.43-0.688-4.68-1.938
	c-2.582-2.582-2.582-6.783,0-9.363c1.248-1.252,2.912-1.939,4.68-1.939c0.648,0,1.281,0.096,1.886,0.271l1.647-1.65l0.834-0.83
	l10.826-10.83c1.234-1.229,3.232-1.229,4.465,0c1.232,1.234,1.232,3.232,0,4.467l-7.195,7.193l1.836,1.836
	c0.604-0.178,1.236-0.27,1.884-0.27c1.771,0,3.433,0.688,4.683,1.938C105.356,154.969,105.356,159.168,102.772,161.75z
	 M88.526,143.039l-4.463,4.465l-5.683-5.68c-1.229-1.232-1.229-3.23,0-4.465c1.231-1.232,3.231-1.232,4.465,0L88.526,143.039z"/>
<circle fill="#FFFFFF" cx="89.905" cy="148.885" r="1.459"/>
<path fill="#FFFFFF" d="M81.907,154.207c-0.586,0-1.139,0.191-1.598,0.535c-0.102,0.076-0.201,0.158-0.293,0.248
	c-1.043,1.043-1.043,2.742,0,3.783c0.506,0.506,1.178,0.783,1.891,0.783c0.715,0,1.388-0.279,1.892-0.783
	c0.094-0.092,0.174-0.193,0.25-0.291c0.78-1.049,0.701-2.541-0.25-3.492C83.295,154.486,82.622,154.207,81.907,154.207z"/>
<path fill="#FFFFFF" d="M99.518,154.809c-0.422-0.268-0.911-0.416-1.428-0.416c-0.713,0-1.386,0.279-1.892,0.783
	c-0.899,0.902-1.021,2.285-0.369,3.318c0.104,0.166,0.228,0.322,0.369,0.465c0.506,0.504,1.179,0.783,1.892,0.783
	c0.715,0,1.387-0.279,1.892-0.783c1.045-1.043,1.045-2.74,0-3.783C99.844,155.037,99.684,154.914,99.518,154.809z"/>
</svg>
