<?xml version="1.0" encoding="UTF-8" standalone="no"?>
<!-- Generator: Adobe Illustrator 15.1.0, SVG Export Plug-In . SVG Version: 6.00 Build 0)  -->

<svg
   xmlns:dc="http://purl.org/dc/elements/1.1/"
   xmlns:cc="http://creativecommons.org/ns#"
   xmlns:rdf="http://www.w3.org/1999/02/22-rdf-syntax-ns#"
   xmlns:svg="http://www.w3.org/2000/svg"
   xmlns="http://www.w3.org/2000/svg"
   xmlns:sodipodi="http://sodipodi.sourceforge.net/DTD/sodipodi-0.dtd"
   xmlns:inkscape="http://www.inkscape.org/namespaces/inkscape"
   version="1.1"
   id="Layer_1"
   x="0px"
   y="0px"
   width="125"
   height="125"
   viewBox="0 0 125 125"
   enable-background="new 0 0 780 130"
   xml:space="preserve"
   inkscape:version="0.48.4 r9939"
   sodipodi:docname="bottone_add_document.svg"><metadata
     id="metadata37"><rdf:RDF><cc:Work
         rdf:about=""><dc:format>image/svg+xml</dc:format><dc:type
           rdf:resource="http://purl.org/dc/dcmitype/StillImage" /></cc:Work></rdf:RDF></metadata><defs
     id="defs35" /><sodipodi:namedview
     pagecolor="#ffffff"
     bordercolor="#666666"
     borderopacity="1"
     objecttolerance="10"
     gridtolerance="10"
     guidetolerance="10"
     inkscape:pageopacity="0"
     inkscape:pageshadow="2"
     inkscape:window-width="1855"
     inkscape:window-height="1056"
     id="namedview33"
     showgrid="false"
     fit-margin-top="0"
     fit-margin-left="0"
     fit-margin-right="0"
     fit-margin-bottom="0"
     inkscape:zoom="1.6606899"
     inkscape:cx="112.25827"
     inkscape:cy="62.473096"
     inkscape:window-x="65"
     inkscape:window-y="24"
     inkscape:window-maximized="1"
     inkscape:current-layer="Layer_1" /><polygon
     points="442.297,23.947 406.105,63.204 452.639,114.061 496.957,84.146 500.653,56.816 469.996,17.3 "
     id="polygon21"
     style="fill:#333333"
     transform="translate(-392.453,-2.4540026)" /><path
     d="M 62.547,-2.573674e-6 C 28.002,-2.573674e-6 0,28.000997 0,62.544997 0,97.086997 28.002,125.092 62.547,125.092 c 34.539,0 62.547,-28.006003 62.547,-62.547003 C 125.094,28.000997 97.086,-2.5736741e-6 62.547,-2.5736741e-6 z M 90.821,72.637997 H 72.639 v 18.174 c 0,5.576 -4.518,10.096003 -10.092,10.096003 -5.576,0 -10.092,-4.520003 -10.092,-10.096003 v -18.174 H 34.279 c -5.576,0 -10.094,-4.52 -10.094,-10.092 0,-5.574 4.518,-10.096 10.094,-10.096 h 18.176 v -18.174 c 0,-5.576 4.516,-10.095 10.092,-10.095 5.574,0 10.092,4.519 10.092,10.095 v 18.174 h 18.183 c 5.569,0 10.092,4.521 10.092,10.096 -0.002,5.572 -4.523,10.092 -10.093,10.092 z"
     id="path23"
     style="fill:#ffffff"
     inkscape:connector-curvature="0" /></svg>
