<?xml version="1.0" encoding="utf-8"?>
<!-- Generator: Adobe Illustrator 15.1.0, SVG Export Plug-In . SVG Version: 6.00 Build 0)  -->
<!DOCTYPE svg PUBLIC "-//W3C//DTD SVG 1.1//EN" "http://www.w3.org/Graphics/SVG/1.1/DTD/svg11.dtd">
<svg version="1.1" id="Layer_1" xmlns="http://www.w3.org/2000/svg" xmlns:xlink="http://www.w3.org/1999/xlink" x="0px" y="0px"
	 width="12em" height="6em" viewBox="0 0 120 60" enable-background="new 0 0 120 60" xml:space="preserve">
<path fill="#FFFFFF" d="M51.756,27.843l-8.774-8.774c-1.191-1.191-3.123-1.191-4.314,0c-1.19,1.191-1.19,3.123,0,4.314l3.567,3.566
	H25.069c-1.686,0-3.051,1.366-3.051,3.051c0,1.685,1.365,3.051,3.051,3.051h17.166l-3.567,3.566c-1.191,1.19-1.191,3.123,0,4.313
	c0.596,0.597,1.376,0.894,2.157,0.894c0.781,0,1.562-0.297,2.157-0.894l8.774-8.774C52.947,30.966,52.947,29.034,51.756,27.843z"/>
<path fill="#FFFFFF" d="M32.453,36.014c-1.926,0-3.487,1.562-3.487,3.487v2.963H14.323V17.536h14.643v2.963
	c0,1.927,1.562,3.487,3.487,3.487c1.925,0,3.486-1.561,3.486-3.487V16.52c0-3.285-2.673-5.957-5.958-5.957H13.308
	c-3.284,0-5.957,2.672-5.957,5.957v26.959c0,3.285,2.673,5.957,5.957,5.957h16.674c3.285,0,5.958-2.672,5.958-5.957V39.5
	C35.94,37.574,34.378,36.014,32.453,36.014z"/>
<path fill="#2A8641" d="M111.756,27.843l-8.774-8.774c-1.191-1.191-3.123-1.191-4.314,0s-1.191,3.123,0,4.314l3.568,3.567H85.067
	c-1.685,0-3.051,1.366-3.051,3.051c0,1.685,1.366,3.051,3.051,3.051h17.168l-3.568,3.565c-1.191,1.191-1.191,3.123,0,4.314
	c0.596,0.596,1.377,0.895,2.158,0.895s1.561-0.299,2.156-0.895l8.774-8.773C112.946,30.966,112.946,29.034,111.756,27.843z"/>
<path fill="#2A8641" d="M92.452,36.014c-1.926,0-3.485,1.562-3.485,3.487v2.962H74.323V17.536h14.644v2.963
	c0,1.926,1.56,3.487,3.485,3.487s3.486-1.561,3.486-3.487V16.52c0-3.285-2.673-5.957-5.957-5.957H73.307
	c-3.284,0-5.957,2.672-5.957,5.957v26.959c0,3.285,2.673,5.957,5.957,5.957h16.675c3.283,0,5.957-2.672,5.957-5.957V39.5
	C95.938,37.574,94.378,36.014,92.452,36.014z"/>
</svg>
