<?xml version="1.0" encoding="utf-8"?>
<!-- Generator: Adobe Illustrator 15.1.0, SVG Export Plug-In  -->
<!DOCTYPE svg PUBLIC "-//W3C//DTD SVG 1.1//EN" "http://www.w3.org/Graphics/SVG/1.1/DTD/svg11.dtd" [
	<!ENTITY ns_flows "http://ns.adobe.com/Flows/1.0/">
]>
<svg version="1.1"
	 xmlns="http://www.w3.org/2000/svg" xmlns:xlink="http://www.w3.org/1999/xlink" xmlns:a="http://ns.adobe.com/AdobeSVGViewerExtensions/3.0/"
	 x="0px" y="0px" width="5.7em" height="5.7em" viewBox="-4.421 -3.42 57 57"
	 overflow="visible" enable-background="new -4.421 -3.42 57 57" xml:space="preserve">
<defs>
</defs>
<path fill="#221F1F" d="M24.078,48.157c13.299,0,24.078-10.78,24.078-24.079C48.156,10.781,37.377,0,24.078,0S0,10.781,0,24.078
	C0,37.377,10.779,48.157,24.078,48.157z M25.127,12.04c0.76-0.759,1.754-1.138,2.748-1.138s1.988,0.379,2.746,1.138
	c1.518,1.518,1.518,3.978,0,5.494l-6.543,6.544l6.623,6.624c1.518,1.517,1.518,3.978,0,5.494c-1.518,1.518-3.977,1.518-5.494,0
	L13.09,24.078L25.127,12.04z"/>
</svg>
