<?xml version="1.0" encoding="utf-8"?>
<!-- Generator: Adobe Illustrator 15.1.0, SVG Export Plug-In . SVG Version: 6.00 Build 0)  -->
<!DOCTYPE svg PUBLIC "-//W3C//DTD SVG 1.1//EN" "http://www.w3.org/Graphics/SVG/1.1/DTD/svg11.dtd">
<svg version="1.1" id="Layer_1" xmlns="http://www.w3.org/2000/svg" xmlns:xlink="http://www.w3.org/1999/xlink" x="0px" y="0px"
	 width="20.4em" height="27em" viewBox="0 0 204 272.4" enable-background="new 0 0 204 272.4" xml:space="preserve">
<circle fill="#41A648" cx="34.62" cy="102.65" r="28.894"/>
<path fill="#FFFFFF" d="M47.546,91.751c0-0.047-0.005-0.091-0.007-0.137c0.01-0.178,0.006-0.357-0.018-0.54
	c-0.21-1.653-1.721-2.825-3.374-2.616L27.236,90.6c-1.488,0.188-2.581,1.432-2.634,2.883c-0.001,0.038-0.006,0.075-0.006,0.112
	v9.716c-0.353-0.069-0.717-0.106-1.091-0.106c-3.103,0-5.619,2.517-5.619,5.619c0,3.104,2.516,5.62,5.619,5.62
	c3.104,0,5.62-2.517,5.62-5.62V96.448l13.894-1.76v12.706c-0.354-0.071-0.719-0.107-1.09-0.107c-3.104,0-5.62,2.516-5.62,5.619
	s2.516,5.619,5.62,5.619c3.103,0,5.62-2.516,5.62-5.619c0-0.047-0.004-0.094-0.005-0.142c0.001-0.024,0.005-0.047,0.005-0.072
	L47.546,91.751L47.546,91.751z"/>
<circle fill="#41A648" cx="34.621" cy="170.682" r="28.894"/>
<path fill="#FFFFFF" d="M49.67,159.485h-7.736v-0.391c0-1.522-1.232-2.754-2.754-2.754h-8.482c-1.519,0-2.751,1.231-2.751,2.754
	v0.391h-7.739c-1.519,0-2.751,1.232-2.751,2.755v18.362c0,1.521,1.232,2.754,2.751,2.754h29.463c1.522,0,2.754-1.232,2.754-2.754
	V162.24C52.424,160.72,51.192,159.485,49.67,159.485z M34.94,178.416c-3.863,0-6.994-3.131-6.994-6.993
	c0-3.864,3.131-6.994,6.994-6.994s6.994,3.13,6.994,6.994C41.934,175.284,38.802,178.416,34.94,178.416z"/>
<circle fill="#41A648" cx="34.621" cy="238.716" r="28.895"/>
<path fill="#FFFFFF" d="M43.894,227.25H25.349c-1.828,0-3.311,1.481-3.311,3.311c0,1.83,1.482,3.312,3.311,3.312h5.963v15.233
	c0,1.828,1.481,3.312,3.31,3.312c1.829,0,3.311-1.483,3.311-3.312v-15.233h5.963c1.828,0,3.311-1.481,3.311-3.312
	C47.206,228.731,45.723,227.25,43.894,227.25z"/>
<circle fill="#41A648" cx="34.62" cy="34.62" r="28.894"/>
<path fill="#FFFFFF" d="M53.9,24.946c-0.095-0.04-0.194-0.06-0.294-0.06c-0.2,0-0.397,0.078-0.545,0.226l-7.465,7.466v-4.234v-2.918
	c0-1.281-1.039-2.319-2.321-2.319h-1.363h-23.46c-1.281,0-2.321,1.038-2.321,2.319v2.918v12.553v2.918
	c0,1.282,1.039,2.321,2.321,2.321h23.461h1.363c1.28,0,2.321-1.038,2.321-2.321v-2.918v-4.233l7.465,7.465
	c0.147,0.147,0.344,0.226,0.544,0.226c0.1,0,0.199-0.021,0.294-0.059c0.287-0.12,0.476-0.401,0.476-0.712V25.656
	C54.375,25.345,54.187,25.064,53.9,24.946z"/>
<path fill="#FFFFFF" d="M102.651,209.822c-15.958,0-28.894,12.937-28.894,28.896c0,15.956,12.935,28.893,28.894,28.893
	c15.959,0,28.896-12.937,28.896-28.893C131.547,222.759,118.611,209.822,102.651,209.822z M111.926,233.874h-5.965v15.233
	c0,1.826-1.479,3.311-3.31,3.311c-1.827,0-3.31-1.48-3.31-3.311v-15.233h-5.962c-1.828,0-3.312-1.481-3.312-3.312
	c0-1.828,1.483-3.312,3.312-3.312h18.546c1.826,0,3.312,1.482,3.312,3.312C115.237,232.39,113.753,233.874,111.926,233.874z"/>
<circle fill="#FFFFFF" cx="102.971" cy="171.421" r="6.995"/>
<path fill="#FFFFFF" d="M102.65,141.789c-15.957,0-28.893,12.936-28.893,28.892c0,15.959,12.936,28.896,28.893,28.896
	c15.957,0,28.894-12.938,28.894-28.896C131.544,154.725,118.609,141.789,102.65,141.789z M120.456,180.602
	c0,1.521-1.231,2.754-2.754,2.754H88.24c-1.522,0-2.754-1.232-2.754-2.754V162.24c0-1.522,1.232-2.755,2.754-2.755h7.736v-0.391
	c0-1.522,1.232-2.754,2.754-2.754h8.481c1.523,0,2.756,1.231,2.756,2.754v0.391h7.735c1.522,0,2.754,1.232,2.754,2.755V180.602z"/>
<path fill="#FFFFFF" d="M102.65,73.757c-15.958,0-28.894,12.937-28.894,28.895c0,15.957,12.936,28.896,28.894,28.896
	c15.957,0,28.894-12.938,28.894-28.896S118.609,73.757,102.65,73.757z M115.576,112.692c0,0.025-0.004,0.048-0.004,0.072
	c0,0.048,0.004,0.095,0.004,0.142c0,3.104-2.518,5.619-5.62,5.619s-5.618-2.516-5.618-5.619s2.516-5.619,5.618-5.619
	c0.373,0,0.737,0.036,1.092,0.107V94.688l-13.895,1.76v12.376c0,3.104-2.517,5.62-5.62,5.62s-5.62-2.517-5.62-5.62
	c0-3.103,2.517-5.619,5.62-5.619c0.375,0,0.738,0.037,1.091,0.106v-9.716c0-0.037,0.005-0.074,0.006-0.112
	c0.053-1.451,1.146-2.694,2.634-2.883l16.91-2.142c1.652-0.21,3.165,0.962,3.374,2.616c0.025,0.183,0.027,0.362,0.021,0.54
	c0.002,0.046,0.006,0.09,0.006,0.137V112.692L115.576,112.692z"/>
<path fill="#FFFFFF" d="M102.65,5.725c-15.957,0-28.894,12.936-28.894,28.894c0,15.957,12.937,28.894,28.894,28.894
	c15.957,0,28.894-12.937,28.894-28.894C131.544,18.661,118.609,5.725,102.65,5.725z M122.406,43.583
	c0,0.311-0.186,0.592-0.476,0.712c-0.096,0.038-0.192,0.059-0.295,0.059c-0.198,0-0.396-0.078-0.542-0.226l-7.467-7.465v4.233v2.918
	c0,1.282-1.039,2.321-2.32,2.321h-1.363H86.484c-1.279,0-2.321-1.038-2.321-2.321v-2.918V28.344v-2.918
	c0-1.281,1.041-2.319,2.321-2.319h23.459h1.365c1.279,0,2.322,1.038,2.322,2.319v2.918v4.234l7.465-7.466
	c0.147-0.147,0.344-0.226,0.543-0.226c0.102,0,0.199,0.02,0.296,0.06c0.286,0.119,0.474,0.399,0.474,0.711L122.406,43.583
	L122.406,43.583z"/>
<path d="M170.645,209.822c-15.96,0-28.894,12.937-28.894,28.896c0,15.956,12.934,28.893,28.894,28.893
	c15.959,0,28.895-12.937,28.895-28.893C199.539,222.759,186.604,209.822,170.645,209.822z M179.918,233.874h-5.963v15.233
	c0,1.826-1.48,3.311-3.311,3.311s-3.311-1.48-3.311-3.311v-15.233h-5.963c-1.826,0-3.312-1.481-3.312-3.312
	c0-1.828,1.484-3.312,3.312-3.312h18.544c1.827,0,3.312,1.482,3.312,3.312C183.227,232.39,181.744,233.874,179.918,233.874z"/>
<circle cx="170.965" cy="171.421" r="6.995"/>
<path d="M170.645,141.789c-15.956,0-28.894,12.936-28.894,28.892c0,15.959,12.938,28.896,28.894,28.896
	c15.959,0,28.895-12.938,28.895-28.896C199.539,154.725,186.604,141.789,170.645,141.789z M188.45,180.602
	c0,1.521-1.231,2.754-2.754,2.754h-29.465c-1.521,0-2.754-1.232-2.754-2.754V162.24c0-1.522,1.232-2.755,2.754-2.755h7.736v-0.391
	c0-1.522,1.232-2.754,2.755-2.754h8.48c1.521,0,2.754,1.231,2.754,2.754v0.391h7.736c1.522,0,2.755,1.232,2.755,2.755
	L188.45,180.602L188.45,180.602z"/>
<path d="M170.645,73.757c-15.96,0-28.894,12.937-28.894,28.895c0,15.957,12.934,28.896,28.894,28.896
	c15.957,0,28.895-12.938,28.895-28.896S186.602,73.757,170.645,73.757z M183.572,112.692c0,0.025-0.002,0.048-0.005,0.072
	c0.003,0.048,0.005,0.095,0.005,0.142c0,3.104-2.516,5.619-5.619,5.619s-5.622-2.516-5.622-5.619s2.519-5.619,5.622-5.619
	c0.374,0,0.735,0.036,1.09,0.107V94.688l-13.895,1.76v12.376c0,3.104-2.516,5.62-5.619,5.62s-5.621-2.517-5.621-5.62
	c0-3.103,2.518-5.619,5.621-5.619c0.375,0,0.738,0.037,1.09,0.106v-9.716c0-0.037,0.004-0.074,0.007-0.112
	c0.052-1.451,1.146-2.694,2.634-2.883l16.91-2.142c1.655-0.21,3.165,0.962,3.375,2.616c0.023,0.183,0.025,0.362,0.017,0.54
	c0.003,0.046,0.007,0.09,0.007,0.137v20.94H183.572z"/>
<path d="M170.645,5.725c-15.956,0-28.894,12.936-28.894,28.894c0,15.957,12.938,28.894,28.894,28.894
	c15.959,0,28.895-12.937,28.895-28.894C199.539,18.661,186.604,5.725,170.645,5.725z M190.4,43.583c0,0.311-0.186,0.592-0.475,0.712
	c-0.097,0.038-0.195,0.059-0.296,0.059c-0.199,0-0.396-0.078-0.542-0.226l-7.467-7.465v4.233v2.918c0,1.282-1.04,2.321-2.32,2.321
	h-1.365h-23.459c-1.279,0-2.322-1.038-2.322-2.321v-2.918V28.344v-2.918c0-1.281,1.04-2.319,2.322-2.319h23.461h1.364
	c1.278,0,2.321,1.038,2.321,2.319v2.918v4.234l7.466-7.466c0.146-0.147,0.343-0.226,0.542-0.226c0.102,0,0.199,0.02,0.295,0.06
	c0.286,0.119,0.476,0.399,0.476,0.711L190.4,43.583L190.4,43.583z"/>
</svg>
