<?xml version="1.0" encoding="utf-8"?>
<!-- Generator: Adobe Illustrator 15.1.0, SVG Export Plug-In . SVG Version: 6.00 Build 0)  -->
<!DOCTYPE svg PUBLIC "-//W3C//DTD SVG 1.1//EN" "http://www.w3.org/Graphics/SVG/1.1/DTD/svg11.dtd">
<svg version="1.1" id="Layer_1" xmlns="http://www.w3.org/2000/svg" xmlns:xlink="http://www.w3.org/1999/xlink" x="0px" y="0px"
	 width="79.37px" height="119.06px" viewBox="0 0 79.37 119.06" enable-background="new 0 0 79.37 119.06" xml:space="preserve">
<rect fill="none" width="39.685" height="39.685"/>
<rect x="39.685" fill="none" width="39.684" height="39.685"/>
<rect y="39.687" fill="none" width="39.685" height="39.685"/>
<rect x="39.685" y="39.687" fill="none" width="39.684" height="39.685"/>
<rect y="79.371" fill="none" width="39.685" height="39.686"/>
<rect x="39.685" y="79.371" fill="none" width="39.684" height="39.686"/>
<g>
	<circle fill="#262626" cx="19.842" cy="19.842" r="15.5"/>
	<path fill-rule="evenodd" clip-rule="evenodd" fill="#A7A8AB" d="M21.876,10.248c0.325-0.08,0.685-0.018,0.974,0.108
		c1.521,0.667,2.729,2.481,3.57,3.931c1.331,2.292,2.962,5.567,2.633,9.088c-0.104,1.106-0.473,2.038-1.659,1.875
		c-1.591-0.219-2.668-1.837-4.833-2.056c-1.055-0.107-3.702-0.367-3.461,1.082c0.107,0.651,0.73,2.07,1.117,2.561
		c0.293,0.371,1.262,0.441,1.01,1.334c-0.139,0.493-2.549,1.358-2.957,1.298c-0.81-0.119-1.297-1.731-1.658-2.56
		c-0.186-0.423-0.33-1.245-0.613-1.443c-0.227-0.157-0.721-0.082-1.046-0.251c-0.124-0.065-0.351-0.468-0.505-0.505
		c-0.312-0.075-0.813,0.321-1.082,0.36c-1.961,0.284-3.881-3.028-2.02-4.436c0.775-0.586,2.072-0.849,3.174-1.442
		c2.775-1.497,5.341-3.272,6.094-6.708C20.754,11.842,20.979,10.468,21.876,10.248z M22.345,15.224
		c0.243,2.102,1.45,4.716,2.632,6.167c0.354,0.434,1.618,1.836,2.02,1.659c0.271-0.119,0.223-1.204,0.181-1.659
		c-0.299-3.31-2.507-7.823-4.651-8.907c-0.034-0.018-0.028,0.032-0.037,0.036C22.069,12.709,22.288,14.732,22.345,15.224z"/>
</g>
<g>
	<circle fill="#262626" cx="19.843" cy="59.529" r="15.5"/>
	<path fill="#A7A8AB" d="M22.572,58.843L22.572,58.843c-1.936-1.241-0.035-2.908-0.002-2.936c0.888-0.676,1.452-1.674,1.452-2.789
		c0-2.036-1.871-3.686-4.181-3.686c-2.308,0-4.18,1.65-4.18,3.686c0,1.114,0.564,2.11,1.45,2.786l0,0c0,0,1.952,1.687,0,2.938
		l0.001,0c-2.181,0.905-3.693,2.854-3.693,5.12c0,3.128,2.875,5.664,6.422,5.664c3.549,0,6.424-2.536,6.424-5.664
		C26.266,61.697,24.753,59.748,22.572,58.843z"/>
</g>
<g>
	<circle fill="#262626" cx="19.842" cy="99.214" r="15.5"/>
	<g>
		<path fill="#A7A8AB" d="M13.45,95.297c0-0.81,0.26-1.631,0.779-2.461c0.521-0.832,1.279-1.52,2.276-2.065s2.161-0.818,3.491-0.818
			c1.236,0,2.327,0.228,3.273,0.684c0.945,0.456,1.678,1.077,2.193,1.86c0.516,0.785,0.773,1.637,0.773,2.559
			c0,0.724-0.147,1.359-0.441,1.904c-0.294,0.546-0.645,1.018-1.049,1.413c-0.404,0.396-1.132,1.063-2.18,2.001
			c-0.29,0.265-0.522,0.497-0.697,0.697c-0.174,0.2-0.305,0.383-0.391,0.549c-0.085,0.167-0.15,0.333-0.197,0.5
			c-0.047,0.166-0.117,0.457-0.211,0.875c-0.162,0.887-0.67,1.33-1.521,1.33c-0.443,0-0.816-0.145-1.119-0.435
			s-0.453-0.72-0.453-1.292c0-0.715,0.109-1.336,0.332-1.859c0.221-0.525,0.516-0.985,0.882-1.381
			c0.366-0.396,0.86-0.868,1.483-1.414c0.545-0.477,0.939-0.838,1.183-1.08s0.448-0.514,0.614-0.812
			c0.166-0.298,0.249-0.622,0.249-0.971c0-0.683-0.254-1.258-0.761-1.727c-0.508-0.469-1.162-0.703-1.963-0.703
			c-0.938,0-1.629,0.236-2.072,0.709s-0.817,1.17-1.125,2.091c-0.289,0.964-0.84,1.444-1.649,1.444c-0.478,0-0.88-0.168-1.208-0.504
			C13.614,96.053,13.45,95.689,13.45,95.297z M19.69,109.311c-0.521,0-0.975-0.168-1.362-0.504
			c-0.388-0.337-0.581-0.809-0.581-1.414c0-0.536,0.188-0.988,0.562-1.355c0.375-0.366,0.835-0.549,1.381-0.549
			c0.537,0,0.988,0.183,1.355,0.549c0.365,0.367,0.55,0.819,0.55,1.355c0,0.598-0.192,1.066-0.575,1.407
			C20.635,109.141,20.192,109.311,19.69,109.311z"/>
	</g>
</g>
<g>
	<circle fill="#5E5E5E" cx="59.527" cy="19.842" r="15.5"/>
	<path fill-rule="evenodd" clip-rule="evenodd" fill="#A7A8AB" d="M61.562,10.247c0.325-0.079,0.685-0.018,0.974,0.109
		c1.521,0.666,2.729,2.48,3.57,3.93c1.331,2.293,2.962,5.568,2.633,9.089c-0.104,1.105-0.473,2.037-1.659,1.875
		c-1.591-0.219-2.668-1.838-4.833-2.057c-1.055-0.107-3.702-0.367-3.461,1.082c0.107,0.652,0.73,2.07,1.117,2.561
		c0.293,0.371,1.262,0.441,1.01,1.334c-0.139,0.494-2.549,1.359-2.957,1.299c-0.81-0.119-1.297-1.73-1.658-2.561
		c-0.186-0.422-0.33-1.244-0.613-1.443c-0.227-0.156-0.721-0.082-1.046-0.252c-0.124-0.064-0.351-0.467-0.505-0.504
		c-0.312-0.076-0.813,0.32-1.082,0.359c-1.961,0.283-3.881-3.027-2.02-4.435c0.775-0.586,2.072-0.85,3.174-1.442
		c2.775-1.497,5.341-3.272,6.094-6.708C60.439,11.842,60.664,10.467,61.562,10.247z M62.03,15.223
		c0.243,2.103,1.45,4.717,2.632,6.168c0.354,0.434,1.618,1.835,2.02,1.658c0.271-0.119,0.223-1.203,0.181-1.658
		c-0.299-3.311-2.507-7.823-4.651-8.908c-0.034-0.018-0.028,0.032-0.037,0.036C61.754,12.709,61.973,14.731,62.03,15.223z"/>
</g>
<g>
	<circle fill="#5E5E5E" cx="59.527" cy="59.53" r="15.5"/>
	<path fill="#A7A8AB" d="M62.257,58.842L62.257,58.842c-1.936-1.24-0.035-2.907-0.002-2.936c0.888-0.676,1.452-1.674,1.452-2.789
		c0-2.035-1.871-3.686-4.181-3.686c-2.308,0-4.18,1.65-4.18,3.686c0,1.114,0.564,2.109,1.45,2.786l0,0c0,0,1.952,1.687,0,2.938
		h0.001c-2.181,0.906-3.693,2.855-3.693,5.121c0,3.127,2.875,5.664,6.422,5.664c3.549,0,6.424-2.537,6.424-5.664
		C65.95,61.697,64.438,59.749,62.257,58.842z"/>
</g>
<g>
	<circle fill="#5E5E5E" cx="59.527" cy="99.633" r="15.5"/>
	<g>
		<path fill="#A7A8AB" d="M53.135,95.715c0-0.809,0.26-1.631,0.779-2.461c0.521-0.832,1.279-1.52,2.276-2.064
			c0.997-0.547,2.161-0.818,3.491-0.818c1.236,0,2.327,0.227,3.273,0.684c0.945,0.455,1.678,1.076,2.193,1.859
			c0.516,0.785,0.773,1.637,0.773,2.559c0,0.725-0.147,1.359-0.441,1.904c-0.294,0.547-0.645,1.018-1.049,1.414s-1.132,1.062-2.18,2
			c-0.29,0.266-0.522,0.498-0.697,0.697c-0.174,0.2-0.305,0.384-0.391,0.55c-0.085,0.166-0.15,0.332-0.197,0.498
			s-0.117,0.459-0.211,0.877c-0.162,0.887-0.67,1.328-1.521,1.328c-0.443,0-0.816-0.145-1.119-0.434
			c-0.303-0.291-0.453-0.721-0.453-1.291c0-0.717,0.109-1.338,0.332-1.86c0.221-0.525,0.516-0.984,0.882-1.381
			s0.86-0.867,1.483-1.414c0.545-0.477,0.939-0.838,1.183-1.08s0.448-0.514,0.614-0.812c0.166-0.297,0.249-0.621,0.249-0.971
			c0-0.682-0.254-1.258-0.761-1.727c-0.508-0.469-1.162-0.703-1.963-0.703c-0.938,0-1.629,0.236-2.072,0.709
			s-0.817,1.17-1.125,2.092c-0.289,0.963-0.84,1.443-1.649,1.443c-0.478,0-0.88-0.168-1.208-0.504
			C53.299,96.471,53.135,96.107,53.135,95.715z M59.375,109.729c-0.521,0-0.975-0.17-1.362-0.506s-0.581-0.807-0.581-1.412
			c0-0.537,0.188-0.99,0.562-1.355c0.375-0.367,0.835-0.551,1.381-0.551c0.537,0,0.988,0.184,1.355,0.551
			c0.365,0.365,0.55,0.818,0.55,1.355c0,0.596-0.192,1.064-0.575,1.406C60.32,109.558,59.877,109.729,59.375,109.729z"/>
	</g>
</g>
</svg>
