<?xml version="1.0" encoding="UTF-8" standalone="no"?>
<!-- Generator: Adobe Illustrator 15.1.0, SVG Export Plug-In  -->

<svg
   xmlns:dc="http://purl.org/dc/elements/1.1/"
   xmlns:cc="http://creativecommons.org/ns#"
   xmlns:rdf="http://www.w3.org/1999/02/22-rdf-syntax-ns#"
   xmlns:svg="http://www.w3.org/2000/svg"
   xmlns="http://www.w3.org/2000/svg"
   xmlns:sodipodi="http://sodipodi.sourceforge.net/DTD/sodipodi-0.dtd"
   xmlns:inkscape="http://www.inkscape.org/namespaces/inkscape"
   version="1.1"
   x="0px"
   y="0px"
   width="25"
   height="75"
   viewBox="0 0 25 75"
   overflow="visible"
   enable-background="new -3.806 -3.805 32 97"
   xml:space="preserve"
   id="svg2"
   inkscape:version="0.48.4 r9939"
   sodipodi:docname="icon_elements.svg"
   style="overflow:visible"><metadata
     id="metadata20"><rdf:RDF><cc:Work
         rdf:about=""><dc:format>image/svg+xml</dc:format><dc:type
           rdf:resource="http://purl.org/dc/dcmitype/StillImage" /></cc:Work></rdf:RDF></metadata><sodipodi:namedview
     pagecolor="#ffffff"
     bordercolor="#666666"
     borderopacity="1"
     objecttolerance="10"
     gridtolerance="10"
     guidetolerance="10"
     inkscape:pageopacity="0"
     inkscape:pageshadow="2"
     inkscape:window-width="1855"
     inkscape:window-height="1056"
     id="namedview18"
     showgrid="false"
     showguides="true"
     inkscape:guide-bbox="true"
     inkscape:zoom="256"
     inkscape:cx="1.8633225"
     inkscape:cy="62.967535"
     inkscape:window-x="65"
     inkscape:window-y="24"
     inkscape:window-maximized="1"
     inkscape:current-layer="svg2"
     fit-margin-top="0"
     fit-margin-left="0"
     fit-margin-right="0"
     fit-margin-bottom="0" /><defs
     id="defs4" /><g
     id="g2997"
     transform="matrix(1.0186194,0,0,1.0184602,0.0013433,-3.1250002e-4)"><circle
       id="circle6"
       r="12.273"
       cy="12.273"
       cx="12.273"
       d="m 24.546,12.273 c 0,6.77819 -5.49481,12.273 -12.273,12.273 C 5.4948092,24.546 0,19.05119 0,12.273 0,5.4948092 5.4948092,0 12.273,0 19.05119,0 24.546,5.4948092 24.546,12.273 z"
       sodipodi:cx="12.273"
       sodipodi:cy="12.273"
       sodipodi:rx="12.273"
       sodipodi:ry="12.273"
       style="fill:#42a648" /><path
       id="path8"
       d="M 20.463,8.163 C 20.424,8.146 20.381,8.138 20.338,8.138 c -0.086,0 -0.17,0.033 -0.23,0.096 l -3.172,3.17 V 9.607 8.367 c 0,-0.544 -0.44,-0.984 -0.984,-0.984 H 15.374 5.405 c -0.544,0 -0.985,0.44 -0.985,0.984 v 1.24 5.333 1.238 c 0,0.545 0.441,0.985 0.985,0.985 h 9.966 0.578 c 0.544,0 0.984,-0.44 0.984,-0.985 v -1.238 -1.8 l 3.172,3.171 c 0.061,0.063 0.145,0.096 0.23,0.096 0.043,0 0.086,-0.008 0.125,-0.023 0.123,-0.052 0.203,-0.172 0.203,-0.303 V 8.466 c 0.003,-0.133 -0.077,-0.252 -0.2,-0.303 z"
       inkscape:connector-curvature="0"
       style="fill:#ffffff" /></g><g
     id="g3001"
     transform="matrix(1.0187816,0,0,1.0186224,-0.0023317,16.982896)"><circle
       id="circle10"
       r="12.271"
       cy="44.686001"
       cx="12.272"
       d="m 24.543,44.686001 c 0,6.777086 -5.493914,12.271 -12.271,12.271 -6.7770858,0 -12.2709996,-5.493914 -12.2709996,-12.271 0,-6.777086 5.4939138,-12.271 12.2709996,-12.271 6.777086,0 12.271,5.493914 12.271,12.271 z"
       sodipodi:cx="12.272"
       sodipodi:cy="44.686001"
       sodipodi:rx="12.271"
       sodipodi:ry="12.271"
       style="fill:#42a648" /><path
       id="path12"
       d="m 17.762,40.056 c 0,-0.019 0,-0.039 -0.002,-0.057 0.004,-0.077 0.002,-0.153 -0.007,-0.23 -0.09,-0.702 -0.73,-1.201 -1.434,-1.111 l -7.184,0.909 c -0.631,0.079 -1.096,0.608 -1.118,1.225 0,0.016 -0.002,0.031 -0.002,0.047 v 4.126 C 7.866,44.936 7.71,44.921 7.551,44.921 c -1.317,0 -2.387,1.068 -2.387,2.386 0,1.318 1.069,2.387 2.387,2.387 1.318,0 2.389,-1.068 2.389,-2.387 V 42.05 l 5.898,-0.748 v 5.397 c -0.148,-0.029 -0.305,-0.045 -0.463,-0.045 -1.318,0 -2.387,1.067 -2.387,2.387 0,1.318 1.069,2.387 2.387,2.387 1.316,0 2.386,-1.068 2.386,-2.387 0,-0.021 0,-0.041 0,-0.06 0,-0.011 0,-0.021 0,-0.03 v -8.895 z"
       inkscape:connector-curvature="0"
       style="fill:#ffffff" /></g><g
     id="g3005"
     transform="matrix(1.0188034,0,0,1.0186443,-0.0022757,-41.02821)"><circle
       id="circle14"
       r="12.271"
       cy="77.089996"
       cx="12.272"
       d="m 24.543,77.089996 c 0,6.777086 -5.493914,12.271 -12.271,12.271 -6.7770858,0 -12.2709996,-5.493914 -12.2709996,-12.271 0,-6.777086 5.4939138,-12.271 12.2709996,-12.271 6.777086,0 12.271,5.493914 12.271,12.271 z"
       sodipodi:cx="12.272"
       sodipodi:cy="77.089996"
       sodipodi:rx="12.271"
       sodipodi:ry="12.271"
       style="fill:#42a648" /><path
       id="path16"
       d="M 18.664,72.335 H 15.38 v -0.167 c 0,-0.646 -0.523,-1.17 -1.17,-1.17 h -3.603 c -0.646,0 -1.17,0.523 -1.17,1.17 v 0.167 H 6.151 c -0.646,0 -1.169,0.523 -1.169,1.171 v 7.799 c 0,0.645 0.522,1.17 1.169,1.17 h 12.513 c 0.648,0 1.172,-0.525 1.172,-1.17 v -7.799 c -10e-4,-0.648 -0.524,-1.171 -1.172,-1.171 z m -6.256,8.04 c -1.64,0 -2.97,-1.33 -2.97,-2.971 0,-1.641 1.33,-2.971 2.97,-2.971 1.642,0 2.972,1.33 2.972,2.971 0,1.64 -1.331,2.971 -2.972,2.971 z"
       inkscape:connector-curvature="0"
       style="fill:#ffffff" /></g></svg>