<?xml version="1.0" encoding="utf-8"?>
<!-- Generator: Adobe Illustrator 15.1.0, SVG Export Plug-In . SVG Version: 6.00 Build 0)  -->
<!DOCTYPE svg PUBLIC "-//W3C//DTD SVG 1.1//EN" "http://www.w3.org/Graphics/SVG/1.1/DTD/svg11.dtd">
<svg version="1.1" id="Layer_1" xmlns="http://www.w3.org/2000/svg" xmlns:xlink="http://www.w3.org/1999/xlink" x="0px" y="0px"
	 width="78em" height="13em" viewBox="0 0 780 130" enable-background="new 0 0 780 130" xml:space="preserve">
<path fill="#FFFFFF" d="M32.827,36.634c0,0-6.174,16.965-6.174,18.418c0,1.453-4.358,14.528-4.358,15.981
	c0,1.451,4.358,19.459,5.268,20.078c0.909,0.621,6.354,5.988,7.808,7.482c1.453,1.492,8.719,5.125,13.802,5.125
	c5.084,0,21.064,0,21.064,0h13.8L96.75,93.564l8.352-14.543c0,0,0.361-11.77,0-14.055c-0.361-2.287-2.907-16.451-3.632-17.902
	c-0.726-1.453-7.624-15.617-7.624-15.617L80.77,26.362L32.827,36.634z"/>
<circle fill="#41A648" cx="65" cy="65.001" r="62.458"/>
<path fill="#FFFFFF" d="M92.943,41.439c0-0.101-0.01-0.196-0.014-0.295c0.02-0.384,0.012-0.772-0.039-1.166
	c-0.453-3.576-3.721-6.108-7.292-5.654L49.04,38.952c-3.218,0.408-5.581,3.094-5.693,6.232c-0.005,0.08-0.015,0.16-0.015,0.241
	v21.003c-0.762-0.15-1.551-0.23-2.357-0.23c-6.708,0-12.146,5.439-12.146,12.146S34.267,90.49,40.975,90.49
	s12.146-5.439,12.146-12.146V51.591l30.035-3.803v27.466c-0.766-0.152-1.555-0.23-2.359-0.23c-6.709,0-12.146,5.439-12.146,12.146
	c0,6.709,5.438,12.145,12.146,12.145s12.146-5.438,12.146-12.146c0-0.102-0.006-0.203-0.01-0.307c0.004-0.053,0.01-0.102,0.01-0.154
	V41.439z"/>
<path fill="#FFFFFF" d="M147.692,40.287v41.09l22.191,21.084l20.528,3.67l33.524-4.779l17.52-8.656c0,0,8.877-26.787,8.877-27.653
	c0-0.863-2.773-21.458-2.773-21.458L227.03,27.652h-24.412h-33.844L147.692,40.287z"/>
<circle fill="#41A648" cx="195" cy="65.041" r="62.12"/>
<path fill="#FFFFFF" d="M236.453,44.242c-0.205-0.084-0.418-0.126-0.633-0.126c-0.432,0-0.854,0.167-1.172,0.485L218.6,60.651
	v-9.103v-6.275c0-2.754-2.234-4.986-4.988-4.986h-2.93h-50.439c-2.754,0-4.988,2.232-4.988,4.986v6.275v26.985v6.273
	c0,2.756,2.234,4.988,4.988,4.988h50.439h2.93c2.754,0,4.988-2.232,4.988-4.988v-6.273v-9.1l16.049,16.049
	c0.317,0.316,0.74,0.482,1.172,0.482c0.215,0,0.428-0.039,0.633-0.125c0.617-0.258,1.021-0.861,1.021-1.527V45.771
	C237.474,45.101,237.071,44.499,236.453,44.242z"/>
<polygon fill="#FFFFFF" points="284.538,28.741 278.437,87.715 291.751,102.141 335.027,102.141 361.104,98.811 374.418,80.256 
	366.097,38.891 354.446,28.741 "/>
<circle fill="#41A648" cx="325" cy="65" r="62.547"/>
<path fill="#FFFFFF" d="M357.576,40.762h-16.748v-0.848c0-3.293-2.668-5.961-5.961-5.961h-18.359c-3.286,0-5.957,2.668-5.957,5.961
	v0.848h-16.752c-3.289,0-5.957,2.669-5.957,5.962v39.749c0,3.293,2.668,5.961,5.957,5.961h63.777c3.293,0,5.962-2.668,5.962-5.961
	V46.724C363.538,43.431,360.869,40.762,357.576,40.762z M325.692,81.74c-8.361,0-15.142-6.781-15.142-15.143
	c0-8.363,6.779-15.141,15.142-15.141c8.357,0,15.137,6.778,15.137,15.141C340.828,74.959,334.05,81.74,325.692,81.74z"/>
<polygon fill="#FFFFFF" points="442.297,23.947 406.105,63.204 452.639,114.061 496.957,84.146 500.653,56.816 469.996,17.3 "/>
<path fill="#41A648" d="M455,2.454c-34.545,0-62.547,28.001-62.547,62.545c0,34.542,28.002,62.547,62.547,62.547
	c34.539,0,62.547-28.006,62.547-62.547C517.547,30.455,489.539,2.454,455,2.454z M483.274,75.092h-18.182v18.174
	c0,5.576-4.518,10.096-10.092,10.096c-5.576,0-10.092-4.52-10.092-10.096V75.092h-18.176c-5.576,0-10.094-4.52-10.094-10.092
	c0-5.574,4.518-10.096,10.094-10.096h18.176V36.73c0-5.576,4.516-10.095,10.092-10.095c5.574,0,10.092,4.519,10.092,10.095v18.174
	h18.183c5.569,0,10.092,4.521,10.092,10.096C493.365,70.572,488.844,75.092,483.274,75.092z"/>
<polygon fill="#FFFFFF" points="735.047,26.989 681.696,29.155 678.64,98.021 731.13,108.209 753.069,91.496 759.333,41.875 "/>
<path fill="#E51B23" d="M759.229,20.773c-24.428-24.427-64.027-24.427-88.454-0.001c-24.426,24.425-24.429,64.029-0.001,88.457
	c24.423,24.422,64.029,24.424,88.456-0.002C783.655,84.801,783.651,45.196,759.229,20.773z M727.857,92.129L715,79.271
	L702.15,92.125c-3.943,3.941-10.333,3.943-14.275,0.002c-3.942-3.943-3.939-10.332,0.003-14.275l12.851-12.85l-12.852-12.853
	c-3.943-3.943-3.94-10.334,0-14.274c3.94-3.941,10.332-3.944,14.275-0.001l12.852,12.853l12.853-12.852
	c3.941-3.942,10.33-3.945,14.272-0.002c3.942,3.942,3.941,10.332-0.002,14.274L729.276,65l12.855,12.856
	c3.938,3.938,3.938,10.332-0.002,14.273C738.19,96.068,731.795,96.068,727.857,92.129z"/>
<path fill="#FFFFFF" d="M547.815,39.616l-13.611,23.593l6.806,13.975l20.962,22.062l17.423,10.607l15.244-10.607
	c0,0,14.16-8.996,15.792-11.174c1.633-2.178,19.601-22.393,19.601-22.393s3.264-16.265,3.81-17.896
	c0.547-1.633-6.533-16.334-6.533-16.334l-29.942-5.989l-18.514,8.729L547.815,39.616z"/>
<path fill="#41A648" d="M585.003,2.587c-34.472,0-62.419,27.941-62.419,62.415c0,34.467,27.947,62.413,62.419,62.413
	c34.468,0,62.412-27.945,62.412-62.413C647.415,30.528,619.471,2.587,585.003,2.587z M621.601,54.415L576.857,99.16l-29.2-29.203
	c-4.046-4.043-4.046-10.605,0-14.656c4.044-4.046,10.606-4.046,14.65,0.005l14.55,14.545l30.09-30.087
	c4.047-4.051,10.604-4.051,14.655,0C625.647,43.807,625.647,50.368,621.601,54.415z"/>
</svg>
