<?xml version="1.0" encoding="utf-8"?>
<!-- Generator: Adobe Illustrator 15.1.0, SVG Export Plug-In . SVG Version: 6.00 Build 0)  -->
<!DOCTYPE svg PUBLIC "-//W3C//DTD SVG 1.1//EN" "http://www.w3.org/Graphics/SVG/1.1/DTD/svg11.dtd">
<svg version="1.1" id="Layer_1" xmlns="http://www.w3.org/2000/svg" xmlns:xlink="http://www.w3.org/1999/xlink" x="0px" y="0px"
	 width="141.73px" height="70.87px" viewBox="0 0 141.73 70.87" enable-background="new 0 0 141.73 70.87" xml:space="preserve">
<g>
	<g>
		<g>
			<g>
				<path fill="#42A648" d="M35.433,60.513c-13.828,0-25.078-11.251-25.078-25.081c0-13.828,11.25-25.078,25.078-25.078
					s25.078,11.25,25.078,25.078C60.511,49.262,49.261,60.513,35.433,60.513z"/>
				<path fill="#FFFFFF" d="M35.433,11.354c13.298,0,24.078,10.78,24.078,24.078c0,13.299-10.78,24.081-24.078,24.081
					S11.354,48.731,11.354,35.432C11.354,22.135,22.135,11.354,35.433,11.354 M35.433,9.354c-14.379,0-26.078,11.698-26.078,26.078
					c0,14.381,11.699,26.081,26.078,26.081s26.078-11.699,26.078-26.081C61.511,21.053,49.812,9.354,35.433,9.354L35.433,9.354z"/>
			</g>
		</g>
		<path fill="#FFFFFF" d="M30.559,22.518c-0.828,0-1.5,0.671-1.5,1.5v2.921l-5.187-5.187c-0.531,0.863-1.258,1.59-2.121,2.121
			l5.187,5.187h-2.921c-0.828,0-1.5,0.671-1.5,1.5s0.672,1.5,1.5,1.5h8.042v-8.042C32.059,23.189,31.388,22.518,30.559,22.518z"/>
		<path fill="#FFFFFF" d="M24.018,41.808h2.921l-5.188,5.188c0.863,0.531,1.59,1.258,2.121,2.121l5.188-5.188v2.922
			c0,0.828,0.671,1.5,1.5,1.5c0.828,0,1.5-0.672,1.5-1.5v-8.043h-8.042c-0.829,0-1.5,0.672-1.5,1.5S23.188,41.808,24.018,41.808z"/>
		<path fill="#FFFFFF" d="M40.306,48.351c0.829,0,1.5-0.67,1.5-1.5v-2.922l5.187,5.188c0.532-0.863,1.259-1.59,2.122-2.121
			l-5.186-5.186h2.919c0.829,0,1.5-0.672,1.5-1.5s-0.671-1.5-1.5-1.5h-6.536c-0.002,0-0.003-0.002-0.005-0.002
			s-0.004,0.002-0.005,0.002h-1.496v8.041C38.806,47.681,39.478,48.351,40.306,48.351z"/>
		<path fill="#FFFFFF" d="M46.85,32.06c0.829,0,1.5-0.671,1.5-1.5s-0.671-1.5-1.5-1.5h-2.923l5.188-5.187
			c-0.863-0.531-1.59-1.258-2.121-2.121l-5.186,5.186v-2.92c0-0.829-0.672-1.5-1.5-1.5c-0.829,0-1.5,0.671-1.5,1.5v6.539
			c0,0.001,0,0.002,0,0.004v1.499H46.85z"/>
	</g>
	<rect y="0" fill="none" width="70.866" height="70.866"/>
</g>
<g>
	<g>
		<g>
			<g>
				<path fill="#42A648" d="M106.298,60.512c-13.827,0-25.077-11.25-25.077-25.079c0-13.828,11.25-25.078,25.077-25.078
					c13.829,0,25.079,11.25,25.079,25.078C131.377,49.262,120.127,60.512,106.298,60.512z"/>
				<path fill="#FFFFFF" d="M106.298,11.355c13.299,0,24.079,10.78,24.079,24.078c0,13.299-10.78,24.079-24.079,24.079
					c-13.297,0-24.077-10.78-24.077-24.079C82.221,22.135,93.001,11.355,106.298,11.355 M106.298,9.355
					c-14.379,0-26.077,11.698-26.077,26.078c0,14.38,11.698,26.079,26.077,26.079c14.38,0,26.079-11.699,26.079-26.079
					C132.377,21.053,120.678,9.355,106.298,9.355L106.298,9.355z"/>
			</g>
		</g>
		<g>
			<path fill="#FFFFFF" d="M94.117,31.294c0.829,0,1.5-0.672,1.5-1.5v-2.921l5.187,5.187c0.531-0.863,1.258-1.59,2.121-2.121
				l-5.187-5.187h2.921c0.828,0,1.5-0.671,1.5-1.5s-0.672-1.5-1.5-1.5h-8.042v8.042C92.617,30.622,93.288,31.294,94.117,31.294z"/>
			<path fill="#FFFFFF" d="M100.659,46.115h-2.921l5.187-5.188c-0.863-0.531-1.59-1.258-2.121-2.121l-5.187,5.188v-2.922
				c0-0.828-0.671-1.5-1.5-1.5s-1.5,0.672-1.5,1.5v8.043h8.042c0.828,0,1.5-0.672,1.5-1.5
				C102.159,46.786,101.487,46.115,100.659,46.115z"/>
			<path fill="#FFFFFF" d="M118.479,39.572c-0.828,0-1.5,0.672-1.5,1.5v2.922l-5.186-5.187c-0.532,0.863-1.259,1.59-2.122,2.12
				l5.186,5.187h-2.919c-0.829,0-1.5,0.671-1.5,1.5s0.671,1.5,1.5,1.5h6.536c0.001,0,0.003,0.001,0.005,0.001
				s0.004-0.001,0.005-0.001h1.495v-8.042C119.979,40.244,119.309,39.572,118.479,39.572z"/>
			<path fill="#FFFFFF" d="M111.938,21.752c-0.829,0-1.5,0.671-1.5,1.5s0.671,1.5,1.5,1.5h2.923l-5.188,5.187
				c0.863,0.531,1.59,1.258,2.121,2.121l5.186-5.185v2.919c0,0.828,0.672,1.5,1.5,1.5c0.829,0,1.5-0.672,1.5-1.5v-6.539
				c0-0.001,0-0.003,0-0.005v-1.499H111.938z"/>
		</g>
	</g>
	<rect x="70.865" y="0" fill="none" width="70.866" height="70.866"/>
</g>
</svg>
