<?xml version="1.0" encoding="utf-8"?>
<!-- Generator: Adobe Illustrator 15.1.0, SVG Export Plug-In . SVG Version: 6.00 Build 0)  -->
<!DOCTYPE svg PUBLIC "-//W3C//DTD SVG 1.1//EN" "http://www.w3.org/Graphics/SVG/1.1/DTD/svg11.dtd">
<svg version="1.1" id="Layer_1" xmlns="http://www.w3.org/2000/svg" xmlns:xlink="http://www.w3.org/1999/xlink" x="0px" y="0px"
	 width="30em" height="24em" viewBox="0 0 300 240" enable-background="new 0 0 300 240" xml:space="preserve">
<rect x="18.555" y="13.477" fill="#FFFFFF" width="25.391" height="33.203"/>
<rect x="77.837" y="13.477" fill="#FFFFFF" width="25.391" height="33.203"/>
<rect x="137.837" y="13.477" fill="#FFFFFF" width="25.392" height="33.203"/>
<rect x="194.206" y="13.477" fill="#FFFFFF" width="31.938" height="33.203"/>
<path fill="#43A748" d="M30.534,4.912c-14.148,0-25.619,11.469-25.619,25.619c0,14.147,11.471,25.619,25.619,25.619
	c14.15,0,25.617-11.472,25.617-25.619C56.151,16.38,44.685,4.912,30.534,4.912z M26.515,44.477c-1.053,0-2.105-0.402-2.906-1.205
	c-1.607-1.607-1.607-4.21,0-5.814l6.924-6.923l-7.01-7.012c-1.605-1.605-1.605-4.211,0-5.814c1.609-1.605,4.211-1.605,5.814,0
	l12.824,12.824L29.423,43.271C28.618,44.074,27.565,44.477,26.515,44.477z"/>
<path fill="#43A748" d="M150.534,4.912c-14.148,0-25.619,11.469-25.619,25.619c0,14.147,11.471,25.619,25.619,25.619
	c14.149,0,25.616-11.472,25.616-25.619C176.15,16.38,164.686,4.912,150.534,4.912z M147.544,39.233c0,1.886-1.529,3.416-3.416,3.416
	h-0.098c-1.885,0-3.414-1.529-3.414-3.416V21.829c0-1.886,1.529-3.416,3.414-3.416h0.098c1.887,0,3.416,1.529,3.416,3.416V39.233z
	 M160.45,39.233c0,1.886-1.529,3.416-3.414,3.416h-0.099c-1.887,0-3.416-1.529-3.416-3.416V21.829c0-1.886,1.529-3.416,3.416-3.416
	h0.099c1.885,0,3.414,1.529,3.414,3.416V39.233z"/>
<path fill="#43A748" d="M210.534,4.912c-14.147,0-25.619,11.469-25.619,25.619c0,14.147,11.471,25.619,25.619,25.619
	c14.149,0,25.616-11.472,25.616-25.619C236.15,16.38,224.686,4.912,210.534,4.912z M225.068,36.875c0,2.901-2.352,5.253-5.254,5.253
	h-18.565c-2.901,0-5.254-2.352-5.254-5.253V24.187c0-2.901,2.353-5.253,5.254-5.253h18.565c2.902,0,5.254,2.352,5.254,5.253V36.875z
	"/>
<path fill="#43A748" d="M217.786,24.327h-14.511c-1.551,0-1.811,0.258-1.811,1.81v8.788c0,1.552,0.26,1.81,1.811,1.81h14.511
	c1.551,0,1.812-0.258,1.812-1.81v-8.788C219.598,24.585,219.337,24.327,217.786,24.327z"/>
<path fill="#43A748" d="M90.534,4.912c-14.148,0-25.619,11.469-25.619,25.619c0,14.147,11.471,25.619,25.619,25.619
	c14.149,0,25.616-11.472,25.616-25.619C116.15,16.38,104.684,4.912,90.534,4.912z M99.511,36.51c0,1.657-1.343,3-3,3H84.552
	c-1.656,0-3-1.343-3-3V24.55c0-1.657,1.344-3,3-3h11.959c1.657,0,3,1.343,3,3V36.51z"/>
<path d="M30.534,64.908c-14.148,0-25.619,11.469-25.619,25.619c0,14.147,11.471,25.619,25.619,25.619
	c14.15,0,25.617-11.472,25.617-25.619C56.151,76.376,44.685,64.908,30.534,64.908z M26.515,104.473
	c-1.053,0-2.105-0.402-2.906-1.205c-1.607-1.607-1.607-4.21,0-5.814l6.924-6.923l-7.01-7.012c-1.605-1.605-1.605-4.211,0-5.814
	c1.609-1.605,4.211-1.605,5.814,0l12.824,12.824l-12.738,12.739C28.618,104.07,27.565,104.473,26.515,104.473z"/>
<path d="M150.534,64.908c-14.148,0-25.619,11.469-25.619,25.619c0,14.147,11.471,25.619,25.619,25.619
	c14.149,0,25.616-11.472,25.616-25.619C176.15,76.376,164.686,64.908,150.534,64.908z M147.544,99.229
	c0,1.886-1.529,3.416-3.416,3.416h-0.098c-1.885,0-3.414-1.529-3.414-3.416V81.825c0-1.886,1.529-3.416,3.414-3.416h0.098
	c1.887,0,3.416,1.529,3.416,3.416V99.229z M160.45,99.229c0,1.886-1.529,3.416-3.414,3.416h-0.099c-1.887,0-3.416-1.529-3.416-3.416
	V81.825c0-1.886,1.529-3.416,3.416-3.416h0.099c1.885,0,3.414,1.529,3.414,3.416V99.229z"/>
<path d="M210.534,64.908c-14.147,0-25.619,11.469-25.619,25.619c0,14.147,11.471,25.619,25.619,25.619
	c14.149,0,25.616-11.472,25.616-25.619C236.15,76.376,224.686,64.908,210.534,64.908z M225.068,96.871
	c0,2.901-2.352,5.253-5.254,5.253h-18.565c-2.901,0-5.254-2.352-5.254-5.253V84.183c0-2.901,2.353-5.253,5.254-5.253h18.565
	c2.902,0,5.254,2.352,5.254,5.253V96.871z"/>
<path d="M217.786,84.323h-14.511c-1.551,0-1.811,0.258-1.811,1.81v8.788c0,1.552,0.26,1.81,1.811,1.81h14.511
	c1.551,0,1.812-0.258,1.812-1.81v-8.788C219.598,84.581,219.337,84.323,217.786,84.323z"/>
<path d="M90.534,64.908c-14.148,0-25.619,11.469-25.619,25.619c0,14.147,11.471,25.619,25.619,25.619
	c14.149,0,25.616-11.472,25.616-25.619C116.15,76.376,104.684,64.908,90.534,64.908z M99.511,96.506c0,1.657-1.343,3-3,3H84.552
	c-1.656,0-3-1.343-3-3v-11.96c0-1.657,1.344-3,3-3h11.959c1.657,0,3,1.343,3,3V96.506z"/>
<path fill="#FFFFFF" d="M30.534,124.904c-14.148,0-25.619,11.47-25.619,25.619c0,14.146,11.471,25.619,25.619,25.619
	c14.15,0,25.617-11.473,25.617-25.619C56.151,136.374,44.685,124.904,30.534,124.904z M26.515,164.471
	c-1.053,0-2.105-0.402-2.906-1.205c-1.607-1.607-1.607-4.211,0-5.814l6.924-6.922l-7.01-7.012c-1.605-1.605-1.605-4.211,0-5.814
	c1.609-1.605,4.211-1.605,5.814,0l12.824,12.824l-12.738,12.738C28.618,164.066,27.565,164.471,26.515,164.471z"/>
<path fill="#FFFFFF" d="M150.534,124.904c-14.148,0-25.619,11.47-25.619,25.619c0,14.146,11.471,25.619,25.619,25.619
	c14.149,0,25.616-11.473,25.616-25.619C176.15,136.374,164.686,124.904,150.534,124.904z M147.544,159.227
	c0,1.887-1.529,3.416-3.416,3.416h-0.098c-1.885,0-3.414-1.529-3.414-3.416v-17.404c0-1.885,1.529-3.414,3.414-3.414h0.098
	c1.887,0,3.416,1.529,3.416,3.414V159.227z M160.45,159.227c0,1.887-1.529,3.416-3.414,3.416h-0.099
	c-1.887,0-3.416-1.529-3.416-3.416v-17.404c0-1.885,1.529-3.414,3.416-3.414h0.099c1.885,0,3.414,1.529,3.414,3.414V159.227z"/>
<path fill="#FFFFFF" d="M210.534,124.904c-14.147,0-25.619,11.47-25.619,25.619c0,14.146,11.471,25.619,25.619,25.619
	c14.149,0,25.616-11.473,25.616-25.619C236.15,136.374,224.686,124.904,210.534,124.904z M225.068,156.868
	c0,2.899-2.352,5.254-5.254,5.254h-18.565c-2.901,0-5.254-2.354-5.254-5.254V144.18c0-2.902,2.353-5.254,5.254-5.254h18.565
	c2.902,0,5.254,2.352,5.254,5.254V156.868z"/>
<path fill="#FFFFFF" d="M217.786,144.318h-14.511c-1.551,0-1.811,0.261-1.811,1.812v8.787c0,1.554,0.26,1.812,1.811,1.812h14.511
	c1.551,0,1.812-0.258,1.812-1.812v-8.787C219.598,144.579,219.337,144.318,217.786,144.318z"/>
<path fill="#FFFFFF" d="M90.534,124.904c-14.148,0-25.619,11.47-25.619,25.619c0,14.146,11.471,25.619,25.619,25.619
	c14.149,0,25.616-11.473,25.616-25.619C116.15,136.374,104.684,124.904,90.534,124.904z M99.511,156.503c0,1.656-1.343,3-3,3H84.552
	c-1.656,0-3-1.344-3-3v-11.959c0-1.655,1.344-3,3-3h11.959c1.657,0,3,1.345,3,3V156.503z"/>
<path fill="#F09622" d="M30.534,184.9c-14.148,0-25.619,11.47-25.619,25.619c0,14.146,11.471,25.619,25.619,25.619
	c14.15,0,25.617-11.473,25.617-25.619C56.151,196.37,44.685,184.9,30.534,184.9z M26.515,224.466c-1.053,0-2.105-0.401-2.906-1.204
	c-1.607-1.607-1.607-4.212,0-5.814l6.924-6.922l-7.01-7.012c-1.605-1.605-1.605-4.211,0-5.814c1.609-1.605,4.211-1.605,5.814,0
	l12.824,12.824l-12.738,12.738C28.618,224.062,27.565,224.466,26.515,224.466z"/>
<path fill="#F09622" d="M150.534,184.9c-14.148,0-25.619,11.47-25.619,25.619c0,14.146,11.471,25.619,25.619,25.619
	c14.149,0,25.616-11.473,25.616-25.619C176.15,196.37,164.686,184.9,150.534,184.9z M147.544,219.223
	c0,1.887-1.529,3.416-3.416,3.416h-0.098c-1.885,0-3.414-1.529-3.414-3.416v-17.404c0-1.885,1.529-3.414,3.414-3.414h0.098
	c1.887,0,3.416,1.529,3.416,3.414V219.223z M160.45,219.223c0,1.887-1.529,3.416-3.414,3.416h-0.099
	c-1.887,0-3.416-1.529-3.416-3.416v-17.404c0-1.885,1.529-3.414,3.416-3.414h0.099c1.885,0,3.414,1.529,3.414,3.414V219.223z"/>
<path fill="#F09622" d="M210.534,184.9c-14.147,0-25.619,11.47-25.619,25.619c0,14.146,11.471,25.619,25.619,25.619
	c14.149,0,25.616-11.473,25.616-25.619C236.15,196.37,224.686,184.9,210.534,184.9z M225.068,216.863c0,2.9-2.352,5.255-5.254,5.255
	h-18.565c-2.901,0-5.254-2.354-5.254-5.255v-12.688c0-2.902,2.353-5.254,5.254-5.254h18.565c2.902,0,5.254,2.352,5.254,5.254
	V216.863z"/>
<path fill="#F09622" d="M217.786,204.314h-14.511c-1.551,0-1.811,0.261-1.811,1.812v8.787c0,1.553,0.26,1.812,1.811,1.812h14.511
	c1.551,0,1.812-0.259,1.812-1.812v-8.787C219.598,204.575,219.337,204.314,217.786,204.314z"/>
<path fill="#F09622" d="M90.534,184.9c-14.148,0-25.619,11.47-25.619,25.619c0,14.146,11.471,25.619,25.619,25.619
	c14.149,0,25.616-11.473,25.616-25.619C116.15,196.37,104.684,184.9,90.534,184.9z M99.511,216.499c0,1.655-1.343,3-3,3H84.552
	c-1.656,0-3-1.345-3-3V204.54c0-1.656,1.344-3,3-3h11.959c1.657,0,3,1.344,3,3V216.499z"/>
<polygon fill="#FFFFFF" points="252.141,24.706 252.141,37.54 263.923,37.54 263.923,48.647 277.583,48.647 277.583,37.54 
	288.466,37.54 288.466,23.58 277.059,23.58 277.059,11.947 263.247,11.947 263.247,23.205 252.141,23.205 "/>
<path fill="#43A748" d="M270.532,4.911c-14.15,0-25.621,11.47-25.621,25.619c0,14.148,11.471,25.62,25.621,25.62
	c14.147,0,25.618-11.472,25.618-25.62C296.15,16.381,284.682,4.911,270.532,4.911z M282.109,34.665h-7.444v7.444
	c0,2.284-1.853,4.136-4.133,4.136c-2.285,0-4.134-1.852-4.134-4.136v-7.444h-7.444c-2.283,0-4.134-1.852-4.134-4.134
	c0-2.284,1.851-4.136,4.134-4.136h7.444v-7.443c0-2.283,1.849-4.136,4.134-4.136c2.28,0,4.133,1.853,4.133,4.136v7.443h7.444
	c2.283,0,4.136,1.852,4.136,4.136C286.247,32.813,284.396,34.665,282.109,34.665z"/>
<path d="M270.532,64.907c-14.15,0-25.621,11.47-25.621,25.619c0,14.148,11.471,25.62,25.621,25.62
	c14.147,0,25.618-11.472,25.618-25.62C296.15,76.377,284.682,64.907,270.532,64.907z M282.109,94.661h-7.444v7.444
	c0,2.284-1.853,4.136-4.133,4.136c-2.285,0-4.134-1.852-4.134-4.136v-7.444h-7.444c-2.283,0-4.134-1.852-4.134-4.134
	c0-2.284,1.851-4.136,4.134-4.136h7.444v-7.443c0-2.283,1.849-4.136,4.134-4.136c2.28,0,4.133,1.853,4.133,4.136v7.443h7.444
	c2.283,0,4.136,1.852,4.136,4.136C286.247,92.81,284.396,94.661,282.109,94.661z"/>
<path fill="#FFFFFF" d="M270.532,124.902c-14.15,0-25.621,11.472-25.621,25.619c0,14.148,11.471,25.621,25.621,25.621
	c14.147,0,25.618-11.473,25.618-25.621C296.15,136.374,284.682,124.902,270.532,124.902z M282.109,154.657h-7.444v7.444
	c0,2.283-1.853,4.135-4.133,4.135c-2.285,0-4.134-1.852-4.134-4.135v-7.444h-7.444c-2.283,0-4.134-1.853-4.134-4.134
	c0-2.284,1.851-4.137,4.134-4.137h7.444v-7.443c0-2.282,1.849-4.135,4.134-4.135c2.28,0,4.133,1.853,4.133,4.135v7.443h7.444
	c2.283,0,4.136,1.853,4.136,4.137C286.247,152.807,284.396,154.657,282.109,154.657z"/>
<path fill="#F09622" d="M270.532,184.898c-14.15,0-25.621,11.472-25.621,25.619c0,14.148,11.471,25.621,25.621,25.621
	c14.147,0,25.618-11.473,25.618-25.621C296.15,196.37,284.682,184.898,270.532,184.898z M282.109,214.652h-7.444v7.445
	c0,2.283-1.853,4.135-4.133,4.135c-2.285,0-4.134-1.852-4.134-4.135v-7.445h-7.444c-2.283,0-4.134-1.852-4.134-4.133
	c0-2.285,1.851-4.137,4.134-4.137h7.444v-7.443c0-2.282,1.849-4.135,4.134-4.135c2.28,0,4.133,1.853,4.133,4.135v7.443h7.444
	c2.283,0,4.136,1.852,4.136,4.137C286.247,212.802,284.396,214.652,282.109,214.652z"/>
</svg>
