<?xml version="1.0" encoding="utf-8"?>
<!-- Generator: Adobe Illustrator 15.1.0, SVG Export Plug-In . SVG Version: 6.00 Build 0)  -->
<!DOCTYPE svg PUBLIC "-//W3C//DTD SVG 1.1//EN" "http://www.w3.org/Graphics/SVG/1.1/DTD/svg11.dtd">
<svg version="1.1"
	 id="svg3344" xmlns:rdf="http://www.w3.org/1999/02/22-rdf-syntax-ns#" xmlns:inkscape="http://www.inkscape.org/namespaces/inkscape" sodipodi:docname="Nuovo documento 2" inkscape:version="0.48.4 r9939" xmlns:cc="http://creativecommons.org/ns#" xmlns:dc="http://purl.org/dc/elements/1.1/" xmlns:sodipodi="http://sodipodi.sourceforge.net/DTD/sodipodi-0.dtd" xmlns:svg="http://www.w3.org/2000/svg"
	 xmlns="http://www.w3.org/2000/svg" xmlns:xlink="http://www.w3.org/1999/xlink" x="0px" y="0px" width="34" height="34"
	 viewBox="0 0 34 34" enable-background="new 0 0 34 33.99" xml:space="preserve">
<sodipodi:namedview  pagecolor="#ffffff" bordercolor="#666666" fit-margin-right="0" fit-margin-bottom="0" fit-margin-top="0" fit-margin-left="0" inkscape:window-width="1855" inkscape:window-height="1056" inkscape:window-x="65" inkscape:window-y="24" inkscape:window-maximized="1" inkscape:document-units="px" inkscape:current-layer="layer1" showgrid="false" inkscape:cx="90.055144" inkscape:cy="-21.511067" inkscape:pageshadow="2" inkscape:zoom="7.9195959" inkscape:pageopacity="0.0" id="base" borderopacity="1.0">
	</sodipodi:namedview>
<g>
	
		<linearGradient id="SVGID_1_" gradientUnits="userSpaceOnUse" x1="347.5171" y1="-496.127" x2="347.5171" y2="-532.377" gradientTransform="matrix(0.8532 0 0 -0.8532 -279.5819 -417.8401)">
		<stop  offset="0" style="stop-color:#A2DEF9"/>
		<stop  offset="0.2126" style="stop-color:#96CEED"/>
		<stop  offset="0.5574" style="stop-color:#79B2D9"/>
		<stop  offset="0.9894" style="stop-color:#518DBB"/>
		<stop  offset="1" style="stop-color:#508CBA"/>
	</linearGradient>
	<path fill="url(#SVGID_1_)" d="M25.837,13.352c-0.226,0-0.445,0.017-0.663,0.042c0.132-0.479,0.209-0.981,0.209-1.502
		c0-3.121-2.53-5.651-5.651-5.651c-2.585,0-4.76,1.739-5.431,4.109c-0.537-0.482-1.238-0.784-2.016-0.784
		c-1.669,0-3.023,1.354-3.023,3.023c0,0.334,0.067,0.649,0.167,0.949c-0.453-0.117-0.925-0.185-1.414-0.185
		c-3.121,0-5.651,2.53-5.651,5.651c0,3.103,2.5,5.617,5.595,5.647c-0.117-0.582-0.18-1.184-0.18-1.8
		c0-5.043,4.103-9.146,9.146-9.146c5.044,0,9.146,4.103,9.146,9.146c0,0.617-0.063,1.219-0.18,1.802
		c3.095-0.03,5.596-2.546,5.596-5.648C31.488,15.883,28.958,13.352,25.837,13.352z"/>
	<path fill="#F29400" d="M16.925,15.505c-3.615,0-6.612,2.612-7.225,6.051c-0.075,0.421-0.121,0.853-0.121,1.295
		c0,4.059,3.288,7.348,7.346,7.348c3.435,0,6.309-2.359,7.114-5.543c0.146-0.578,0.232-1.181,0.232-1.805
		C24.272,18.793,20.984,15.505,16.925,15.505z"/>
</g>
<g>
	<path fill="#FFFFFF" d="M16.954,28.265c-0.859,0-1.455-0.542-1.455-1.262c0-0.747,0.611-1.258,1.488-1.258
		c0.878,0,1.455,0.511,1.473,1.258c0,0.72-0.578,1.262-1.473,1.262H16.954z M16.045,23.995l-0.365-6.271h2.613l-0.362,6.271H16.045z
		"/>
</g>
</svg>
