<?xml version="1.0" encoding="utf-8"?>
<!-- Generator: Adobe Illustrator 15.1.0, SVG Export Plug-In . SVG Version: 6.00 Build 0)  -->
<!DOCTYPE svg PUBLIC "-//W3C//DTD SVG 1.1//EN" "http://www.w3.org/Graphics/SVG/1.1/DTD/svg11.dtd">
<svg version="1.1" id="Layer_1" xmlns="http://www.w3.org/2000/svg" xmlns:xlink="http://www.w3.org/1999/xlink" x="0px" y="0px"
	 width="12em" height="6em" viewBox="0 0 120 60" enable-background="new 0 0 120 60" xml:space="preserve">
<path fill="#FFFFFF" d="M30,4.479c-14.095,0-25.521,11.426-25.521,25.521C4.479,44.096,15.905,55.52,30,55.52
	c14.095,0,25.521-11.425,25.521-25.521C55.521,15.905,44.095,4.479,30,4.479z M45.721,30.512c-0.013,0.127-0.035,0.25-0.057,0.375
	c-0.008,0.041-0.011,0.083-0.02,0.124c-0.029,0.147-0.067,0.294-0.108,0.438c-0.006,0.015-0.007,0.031-0.013,0.047
	c-0.046,0.147-0.099,0.291-0.155,0.434c-0.004,0.014-0.01,0.025-0.014,0.039c-0.057,0.134-0.121,0.266-0.188,0.396
	c-0.011,0.02-0.019,0.039-0.027,0.059c-0.065,0.119-0.136,0.232-0.209,0.345c-0.018,0.029-0.031,0.06-0.052,0.086
	c-0.07,0.105-0.146,0.207-0.226,0.308c-0.025,0.031-0.049,0.066-0.076,0.099c-0.098,0.12-0.202,0.233-0.311,0.344
	c-0.01,0.011-0.017,0.02-0.025,0.028l-9.914,9.915c-1.003,1.002-2.317,1.503-3.631,1.503s-2.629-0.5-3.63-1.503
	c-2.007-2.006-2.007-5.259,0-7.263l1.146-1.147h-9.926c-2.837,0-5.135-2.3-5.135-5.136s2.298-5.135,5.135-5.135h9.925l-1.145-1.146
	c-2.007-2.006-2.007-5.258,0-7.263c2.004-2.005,5.256-2.005,7.261,0l9.914,9.914c0.01,0.01,0.019,0.02,0.028,0.029
	c0.107,0.11,0.212,0.223,0.308,0.343c0.03,0.036,0.057,0.074,0.083,0.11c0.075,0.096,0.15,0.192,0.219,0.293
	c0.021,0.032,0.039,0.067,0.059,0.099c0.07,0.109,0.139,0.218,0.201,0.333c0.011,0.023,0.021,0.046,0.033,0.068
	c0.063,0.126,0.126,0.254,0.183,0.387c0.005,0.015,0.011,0.03,0.017,0.045c0.057,0.139,0.107,0.281,0.152,0.427
	c0.006,0.016,0.008,0.033,0.014,0.051c0.04,0.143,0.08,0.287,0.107,0.435c0.009,0.041,0.012,0.083,0.02,0.126
	c0.021,0.123,0.044,0.245,0.057,0.372c0.018,0.169,0.024,0.34,0.024,0.512C45.745,30.173,45.739,30.343,45.721,30.512z"/>
<rect x="71.86" y="13.91" fill="#FFFFFF" width="34.967" height="32.536"/>
<path fill="#41A648" d="M90,4.479C75.903,4.479,64.479,15.905,64.479,30c0,14.097,11.426,25.521,25.521,25.521
	S115.521,44.096,115.521,30C115.521,15.905,104.095,4.479,90,4.479z M105.721,30.512c-0.013,0.127-0.035,0.25-0.058,0.375
	c-0.008,0.041-0.01,0.083-0.02,0.124c-0.029,0.147-0.066,0.294-0.107,0.438c-0.006,0.015-0.008,0.031-0.014,0.047
	c-0.046,0.147-0.099,0.291-0.154,0.434c-0.004,0.014-0.01,0.025-0.014,0.039c-0.058,0.134-0.121,0.266-0.189,0.396
	c-0.01,0.02-0.018,0.039-0.026,0.059c-0.065,0.119-0.136,0.232-0.209,0.345c-0.019,0.029-0.03,0.06-0.052,0.086
	c-0.07,0.105-0.146,0.207-0.227,0.308c-0.024,0.031-0.049,0.066-0.076,0.099c-0.098,0.12-0.201,0.233-0.311,0.344
	c-0.01,0.011-0.018,0.02-0.025,0.028l-9.914,9.915c-1.002,1.002-2.316,1.503-3.631,1.503c-1.313,0-2.629-0.5-3.629-1.503
	c-2.008-2.006-2.008-5.259,0-7.263l1.146-1.147h-9.927c-2.836,0-5.135-2.3-5.135-5.136s2.299-5.135,5.135-5.135h9.926l-1.145-1.146
	c-2.008-2.006-2.008-5.258,0-7.263c2.004-2.005,5.256-2.005,7.26,0l9.914,9.914c0.011,0.01,0.02,0.02,0.028,0.029
	c0.107,0.11,0.212,0.223,0.308,0.343c0.031,0.036,0.058,0.074,0.084,0.11c0.074,0.096,0.149,0.192,0.219,0.293
	c0.021,0.032,0.039,0.067,0.059,0.099c0.07,0.109,0.139,0.218,0.201,0.333c0.012,0.023,0.021,0.046,0.033,0.068
	c0.062,0.126,0.126,0.254,0.184,0.387c0.004,0.015,0.01,0.03,0.016,0.045c0.058,0.139,0.107,0.281,0.152,0.427
	c0.006,0.016,0.008,0.033,0.014,0.051c0.041,0.143,0.08,0.287,0.107,0.435c0.01,0.041,0.012,0.083,0.02,0.126
	c0.021,0.123,0.045,0.245,0.058,0.372c0.019,0.169,0.024,0.34,0.024,0.512C105.745,30.173,105.739,30.343,105.721,30.512z"/>
</svg>
