<?xml version="1.0" encoding="utf-8"?>
<!-- Generator: Adobe Illustrator 15.1.0, SVG Export Plug-In  -->
<!DOCTYPE svg PUBLIC "-//W3C//DTD SVG 1.1//EN" "http://www.w3.org/Graphics/SVG/1.1/DTD/svg11.dtd" [
	<!ENTITY ns_flows "http://ns.adobe.com/Flows/1.0/">
]>
<svg version="1.1"
	 xmlns="http://www.w3.org/2000/svg" xmlns:xlink="http://www.w3.org/1999/xlink" xmlns:a="http://ns.adobe.com/AdobeSVGViewerExtensions/3.0/"
	 x="0px" y="0px" width="7em" height="35em" viewBox="-1.005 -5.42 68 408"
	 overflow="visible" enable-background="new -1.005 -5.42 68 408" xml:space="preserve">
<defs>
</defs>
<linearGradient id="SVGID_1_" gradientUnits="userSpaceOnUse" x1="138.27" y1="336.8574" x2="164.479" y2="336.8574" gradientTransform="matrix(0.7071 0.7071 -0.7071 0.7071 150.0919 5.9125)">
	<stop  offset="0" style="stop-color:#F2F2F2"/>
	<stop  offset="1" style="stop-color:#BDBDBD"/>
</linearGradient>
<path fill="url(#SVGID_1_)" d="M4.64,351.711c3.585-2.215,8.348-1.768,11.456,1.34c0.227,0.227,0.519,0.541,0.717,0.783
	l-0.215,0.223l-2.581,2.582c-0.857,0.855-0.855,2.234-0.001,3.088c0.394,0.395,0.9,0.609,1.414,0.641l11.457,0.01
	c0,0,1.31,0.035,2.02-0.672l0.15-0.152c0.708-0.707,0.674-2.02,0.674-2.02l-0.012-11.455c-0.031-0.514-0.244-1.02-0.638-1.414
	c-0.855-0.855-2.233-0.857-3.091,0.002l-2.226,2.225l-0.338,0.336c-0.086-0.092-0.215-0.18-0.305-0.27
	c-5.117-5.117-13.414-5.119-18.532,0c-0.717,0.717-1.334,1.496-1.851,2.322l-0.257,0.438c-0.34,0.574-0.264,1.328,0.231,1.822
	c0.497,0.498,1.254,0.572,1.83,0.229L4.64,351.711z"/>
<linearGradient id="SVGID_2_" gradientUnits="userSpaceOnUse" x1="162.3247" y1="312.8047" x2="188.5317" y2="312.8047" gradientTransform="matrix(0.7071 0.7071 -0.7071 0.7071 150.0919 5.9125)">
	<stop  offset="0" style="stop-color:#A2DEF9"/>
	<stop  offset="0.2126" style="stop-color:#96CEED"/>
	<stop  offset="0.5574" style="stop-color:#79B2D9"/>
	<stop  offset="0.9894" style="stop-color:#518DBB"/>
	<stop  offset="1" style="stop-color:#508CBA"/>
</linearGradient>
<path fill="url(#SVGID_2_)" d="M38.657,351.711c3.584-2.215,8.348-1.768,11.455,1.34c0.227,0.227,0.52,0.541,0.717,0.783
	l-0.215,0.223l-2.58,2.582c-0.857,0.855-0.855,2.234-0.002,3.088c0.395,0.395,0.9,0.609,1.414,0.641l11.457,0.01
	c0,0,1.311,0.035,2.02-0.672l0.15-0.152c0.709-0.707,0.674-2.02,0.674-2.02l-0.012-11.455c-0.031-0.514-0.244-1.02-0.639-1.414
	c-0.854-0.855-2.232-0.857-3.09,0.002l-2.227,2.225l-0.338,0.336c-0.086-0.092-0.215-0.18-0.305-0.27
	c-5.115-5.117-13.414-5.119-18.531,0c-0.717,0.717-1.334,1.496-1.852,2.322l-0.256,0.438c-0.342,0.574-0.266,1.328,0.23,1.822
	c0.496,0.498,1.254,0.572,1.83,0.229L38.657,351.711z"/>
<linearGradient id="SVGID_3_" gradientUnits="userSpaceOnUse" x1="16.001" y1="374.2852" x2="16.001" y2="397.2383">
	<stop  offset="0" style="stop-color:#F2F2F2"/>
	<stop  offset="1" style="stop-color:#BDBDBD"/>
</linearGradient>
<path fill="url(#SVGID_3_)" d="M16.001,374.285c-6.339,0-11.477,5.139-11.477,11.477c0,6.34,5.138,11.477,11.477,11.477
	s11.476-5.137,11.476-11.477C27.477,379.424,22.34,374.285,16.001,374.285z M16.053,378.855c0.354-0.35,0.775-0.525,1.268-0.525
	c0.49,0,0.912,0.176,1.266,0.525c0.354,0.352,0.53,0.777,0.53,1.277c0,0.492-0.177,0.916-0.53,1.271
	c-0.354,0.354-0.775,0.531-1.266,0.531c-0.492,0-0.914-0.178-1.268-0.531c-0.354-0.355-0.529-0.779-0.529-1.271
	C15.524,379.633,15.7,379.207,16.053,378.855z M15.521,393.193c-0.71,0-1.245-0.15-1.604-0.449s-0.539-0.744-0.539-1.336
	c0-0.346,0.133-0.951,0.396-1.82l1.218-3.973c0.095-0.307,0.142-0.508,0.142-0.598c0-0.094-0.021-0.16-0.062-0.203
	c-0.043-0.041-0.109-0.062-0.202-0.062c-0.392,0-0.853,0.498-1.384,1.496h-1.105c0.985-2.141,2.375-3.213,4.172-3.213
	c0.633,0,1.127,0.156,1.479,0.465c0.351,0.311,0.526,0.736,0.526,1.279c0,0.396-0.14,1.029-0.418,1.896l-1.184,3.641
	c-0.171,0.516-0.255,0.838-0.255,0.971c0,0.088,0.025,0.154,0.074,0.201c0.051,0.047,0.121,0.07,0.213,0.07
	c0.199,0,0.455-0.172,0.766-0.516c0.311-0.342,0.547-0.67,0.708-0.982h1.163C18.645,392.15,17.278,393.193,15.521,393.193z"/>
<linearGradient id="SVGID_4_" gradientUnits="userSpaceOnUse" x1="50.0249" y1="374.2852" x2="50.0249" y2="397.2383">
	<stop  offset="0" style="stop-color:#A2DEF9"/>
	<stop  offset="0.2126" style="stop-color:#96CEED"/>
	<stop  offset="0.5574" style="stop-color:#79B2D9"/>
	<stop  offset="0.9894" style="stop-color:#518DBB"/>
	<stop  offset="1" style="stop-color:#508CBA"/>
</linearGradient>
<path fill="url(#SVGID_4_)" d="M50.025,374.285c-6.338,0-11.477,5.139-11.477,11.477s5.139,11.477,11.477,11.477
	s11.477-5.139,11.477-11.477S56.363,374.285,50.025,374.285z M50.076,378.855c0.354-0.35,0.776-0.525,1.268-0.525
	c0.492,0,0.914,0.176,1.267,0.525s0.53,0.775,0.53,1.277c0,0.492-0.178,0.916-0.53,1.27c-0.353,0.355-0.774,0.533-1.267,0.533
	c-0.491,0-0.914-0.178-1.268-0.533c-0.353-0.354-0.529-0.777-0.529-1.27C49.546,379.631,49.723,379.205,50.076,378.855z
	 M49.544,393.193c-0.711,0-1.245-0.15-1.604-0.449c-0.358-0.299-0.538-0.744-0.538-1.336c0-0.346,0.132-0.951,0.396-1.82
	l1.218-3.973c0.095-0.307,0.143-0.508,0.143-0.6s-0.021-0.158-0.064-0.201c-0.042-0.043-0.109-0.062-0.201-0.062
	c-0.393,0-0.854,0.498-1.383,1.496h-1.106c0.985-2.143,2.376-3.213,4.172-3.213c0.634,0,1.126,0.154,1.478,0.465
	c0.352,0.309,0.527,0.736,0.527,1.277c0,0.398-0.139,1.031-0.418,1.898l-1.184,3.641c-0.17,0.514-0.255,0.838-0.255,0.971
	c0,0.086,0.024,0.152,0.074,0.201c0.05,0.045,0.121,0.068,0.214,0.068c0.199,0,0.455-0.17,0.766-0.514
	c0.31-0.342,0.545-0.67,0.707-0.982h1.163C52.669,392.148,51.301,393.193,49.544,393.193z"/>
<linearGradient id="SVGID_5_" gradientUnits="userSpaceOnUse" x1="160.936" y1="120.5391" x2="160.936" y2="143.6973" gradientTransform="matrix(1 0 0 1 -144.9336 -120.5293)">
	<stop  offset="0" style="stop-color:#F2F2F2"/>
	<stop  offset="1" style="stop-color:#BDBDBD"/>
</linearGradient>
<path fill="url(#SVGID_5_)" d="M16.002,0.01c-6.396,0-11.58,5.184-11.58,11.58c0,6.395,5.184,11.578,11.58,11.578
	c6.395,0,11.578-5.184,11.578-11.578S22.397,0.01,16.002,0.01z M16.002,3.6c1.424,0,2.76,0.377,3.918,1.031L9.043,15.508
	c-0.654-1.158-1.031-2.492-1.031-3.918C8.012,7.176,11.588,3.6,16.002,3.6z M16.002,19.578c-1.322,0-2.566-0.326-3.664-0.895
	L23.096,7.926c0.568,1.098,0.895,2.342,0.895,3.664C23.991,16.002,20.415,19.578,16.002,19.578z"/>
<linearGradient id="SVGID_6_" gradientUnits="userSpaceOnUse" x1="194.9517" y1="120.5293" x2="194.9517" y2="143.6855" gradientTransform="matrix(1 0 0 1 -144.9336 -120.5293)">
	<stop  offset="0" style="stop-color:#A2DEF9"/>
	<stop  offset="0.2126" style="stop-color:#96CEED"/>
	<stop  offset="0.5574" style="stop-color:#79B2D9"/>
	<stop  offset="0.9894" style="stop-color:#518DBB"/>
	<stop  offset="1" style="stop-color:#508CBA"/>
</linearGradient>
<path fill="url(#SVGID_6_)" d="M50.018,0C43.624,0,38.44,5.184,38.44,11.578s5.184,11.578,11.578,11.578s11.579-5.184,11.579-11.578
	S56.413,0,50.018,0z M50.018,3.59c1.426,0,2.761,0.377,3.92,1.031L43.061,15.496c-0.654-1.158-1.031-2.492-1.031-3.918
	C42.03,7.164,45.606,3.59,50.018,3.59z M50.018,19.566c-1.321,0-2.564-0.326-3.662-0.895L57.114,7.914
	c0.568,1.098,0.895,2.342,0.895,3.664C58.008,15.99,54.43,19.566,50.018,19.566z"/>
<linearGradient id="SVGID_7_" gradientUnits="userSpaceOnUse" x1="160.936" y1="154.4902" x2="160.936" y2="177.7773" gradientTransform="matrix(1 0 0 1 -144.9336 -120.5293)">
	<stop  offset="0" style="stop-color:#F2F2F2"/>
	<stop  offset="1" style="stop-color:#BDBDBD"/>
</linearGradient>
<path fill="url(#SVGID_7_)" d="M16.001,33.961c-6.43,0-11.643,5.213-11.643,11.645c0,6.43,5.213,11.643,11.643,11.643
	s11.643-5.213,11.643-11.643C27.644,39.174,22.431,33.961,16.001,33.961z M22.138,48.318c0.945,0.943,0.945,2.477,0,3.422
	c-0.946,0.945-2.479,0.945-3.424,0l-2.713-2.713l-2.713,2.713c-0.945,0.945-2.477,0.945-3.422,0s-0.945-2.479,0-3.422l2.711-2.713
	l-2.711-2.713c-0.945-0.945-0.945-2.479,0-3.424s2.478-0.945,3.423,0l2.712,2.713l2.713-2.713c0.945-0.945,2.478-0.945,3.424,0
	c0.945,0.945,0.945,2.479,0,3.424l-2.713,2.713L22.138,48.318z"/>
<linearGradient id="SVGID_8_" gradientUnits="userSpaceOnUse" x1="160.937" y1="190.3574" x2="160.937" y2="209.9409" gradientTransform="matrix(1 0 0 1 -144.9336 -120.5293)">
	<stop  offset="0" style="stop-color:#F2F2F2"/>
	<stop  offset="1" style="stop-color:#BDBDBD"/>
</linearGradient>
<path fill="url(#SVGID_8_)" d="M22.213,69.828c-2.357,0-4.52,0.834-6.211,2.223c-1.689-1.389-3.852-2.223-6.209-2.223
	C4.385,69.828,0,74.213,0,79.621s4.385,9.791,9.793,9.791c2.357,0,4.52-0.834,6.209-2.221c1.691,1.387,3.854,2.221,6.211,2.221
	c5.408,0,9.793-4.383,9.793-9.791S27.621,69.828,22.213,69.828z M22.213,86.82c-1.678,0-3.215-0.578-4.439-1.537
	c-1.678-1.318-2.762-3.363-2.762-5.662c0-2.301,1.082-4.344,2.762-5.662c1.225-0.961,2.762-1.539,4.439-1.539
	c3.977,0,7.201,3.225,7.201,7.201S26.189,86.82,22.213,86.82z"/>
<linearGradient id="SVGID_9_" gradientUnits="userSpaceOnUse" x1="194.9517" y1="190.3574" x2="194.9517" y2="209.9409" gradientTransform="matrix(1 0 0 1 -144.9336 -120.5293)">
	<stop  offset="0" style="stop-color:#A2DEF9"/>
	<stop  offset="0.2126" style="stop-color:#96CEED"/>
	<stop  offset="0.5574" style="stop-color:#79B2D9"/>
	<stop  offset="0.9894" style="stop-color:#518DBB"/>
	<stop  offset="1" style="stop-color:#508CBA"/>
</linearGradient>
<path fill="url(#SVGID_9_)" d="M56.227,69.828c-2.355,0-4.518,0.834-6.209,2.223c-1.689-1.389-3.852-2.223-6.209-2.223
	c-5.408,0-9.793,4.385-9.793,9.793s4.385,9.791,9.793,9.791c2.357,0,4.52-0.834,6.209-2.221c1.691,1.387,3.854,2.221,6.209,2.221
	c5.408,0,9.793-4.383,9.793-9.791S61.635,69.828,56.227,69.828z M56.227,86.82c-1.676,0-3.213-0.578-4.438-1.537
	c-1.678-1.318-2.762-3.363-2.762-5.662c0-2.301,1.082-4.344,2.762-5.662c1.225-0.961,2.762-1.539,4.438-1.539
	c3.977,0,7.201,3.225,7.201,7.201S60.204,86.82,56.227,86.82z"/>
<linearGradient id="SVGID_10_" gradientUnits="userSpaceOnUse" x1="160.937" y1="222.8828" x2="160.937" y2="245.4453" gradientTransform="matrix(1 0 0 1 -144.9336 -120.5293)">
	<stop  offset="0" style="stop-color:#F2F2F2"/>
	<stop  offset="1" style="stop-color:#BDBDBD"/>
</linearGradient>
<polygon fill="url(#SVGID_10_)" points="16.003,102.354 19.952,109.388 27.864,110.972 22.394,116.903 23.333,124.917 
	16.003,121.548 8.671,124.917 9.61,116.903 4.142,110.972 12.052,109.388 "/>
<linearGradient id="SVGID_11_" gradientUnits="userSpaceOnUse" x1="194.9517" y1="222.8828" x2="194.9517" y2="245.4453" gradientTransform="matrix(1 0 0 1 -144.9336 -120.5293)">
	<stop  offset="0" style="stop-color:#A2DEF9"/>
	<stop  offset="0.2126" style="stop-color:#96CEED"/>
	<stop  offset="0.5574" style="stop-color:#79B2D9"/>
	<stop  offset="0.9894" style="stop-color:#518DBB"/>
	<stop  offset="1" style="stop-color:#508CBA"/>
</linearGradient>
<polygon fill="url(#SVGID_11_)" points="50.018,102.354 53.969,109.388 61.879,110.972 56.411,116.903 57.35,124.917 
	50.018,121.548 42.688,124.917 43.627,116.903 38.157,110.972 46.069,109.388 "/>
<linearGradient id="SVGID_12_" gradientUnits="userSpaceOnUse" x1="160.937" y1="255.0547" x2="160.937" y2="281.3047" gradientTransform="matrix(1 0 0 1 -144.9336 -120.5293)">
	<stop  offset="0" style="stop-color:#F2F2F2"/>
	<stop  offset="1" style="stop-color:#BDBDBD"/>
</linearGradient>
<path fill="url(#SVGID_12_)" d="M24.475,151.733c-1.348,0-2.553,0.592-3.381,1.527l-9.063-3.941
	c0.014-0.145,0.021-0.291,0.021-0.439c0-0.273-0.029-0.539-0.074-0.799l9.588-5.572c0.787,0.66,1.801,1.061,2.908,1.061
	c2.496,0,4.521-2.023,4.521-4.521c0-2.496-2.025-4.521-4.521-4.521c-2.498,0-4.521,2.025-4.521,4.521
	c0,0.367,0.049,0.721,0.131,1.062l-9.448,5.49c-0.811-0.768-1.9-1.242-3.105-1.242c-2.498,0-4.521,2.025-4.521,4.521
	c0,2.498,2.023,4.521,4.521,4.521c1.336,0,2.533-0.582,3.361-1.504l9.081,3.949c-0.012,0.135-0.02,0.27-0.02,0.408
	c0,2.496,2.023,4.521,4.521,4.521c2.496,0,4.521-2.025,4.521-4.521C28.996,153.757,26.971,151.733,24.475,151.733z"/>
<linearGradient id="SVGID_13_" gradientUnits="userSpaceOnUse" x1="160.937" y1="288.9453" x2="160.937" y2="315.4434" gradientTransform="matrix(1 0 0 1 -144.9336 -120.5293)">
	<stop  offset="0" style="stop-color:#F2F2F2"/>
	<stop  offset="1" style="stop-color:#BDBDBD"/>
</linearGradient>
<path fill="url(#SVGID_13_)" d="M23.732,168.417H8.273c-3.049,0-5.52,2.471-5.52,5.52v3.182v9.098v3.18
	c0,3.049,2.471,5.52,5.52,5.52h15.459c3.049,0,5.52-2.471,5.52-5.52v-3.18v-9.098v-3.182
	C29.251,170.888,26.781,168.417,23.732,168.417z M16.003,189.136c-4.125,0-7.469-3.344-7.469-7.469s3.344-7.469,7.469-7.469
	s7.469,3.344,7.469,7.469S20.128,189.136,16.003,189.136z"/>
<linearGradient id="SVGID_14_" gradientUnits="userSpaceOnUse" x1="160.938" y1="297.6152" x2="160.938" y2="306.7754" gradientTransform="matrix(1 0 0 1 -144.9336 -120.5293)">
	<stop  offset="0" style="stop-color:#F2F2F2"/>
	<stop  offset="1" style="stop-color:#BDBDBD"/>
</linearGradient>
<path fill="url(#SVGID_14_)" d="M16.298,177.087c0.096,0.307,0.148,0.635,0.148,0.975c0,1.816-1.471,3.287-3.287,3.287
	c-0.613,0-1.184-0.17-1.676-0.463c-0.041,0.252-0.068,0.51-0.068,0.773c0,2.533,2.053,4.588,4.588,4.588
	c2.533,0,4.588-2.055,4.588-4.588C20.591,179.226,18.695,177.239,16.298,177.087z"/>
<linearGradient id="SVGID_15_" gradientUnits="userSpaceOnUse" x1="168.2231" y1="325.0498" x2="168.2231" y2="332.7842" gradientTransform="matrix(1 0 0 1 -144.9336 -120.5293)">
	<stop  offset="0" style="stop-color:#F2F2F2"/>
	<stop  offset="1" style="stop-color:#BDBDBD"/>
</linearGradient>
<path fill="url(#SVGID_15_)" d="M26.658,208.687l-3.668-3.668c-0.665-0.664-1.742-0.664-2.406,0l-1.163,1.162l6.074,6.074
	l1.163-1.162C27.322,210.429,27.322,209.351,26.658,208.687z"/>
<linearGradient id="SVGID_16_" gradientUnits="userSpaceOnUse" x1="159.5493" y1="327.8252" x2="159.5493" y2="347.376" gradientTransform="matrix(1 0 0 1 -144.9336 -120.5293)">
	<stop  offset="0" style="stop-color:#F2F2F2"/>
	<stop  offset="1" style="stop-color:#BDBDBD"/>
</linearGradient>
<path fill="url(#SVGID_16_)" d="M18.306,207.296l-13.002,13c-0.033,0.035-0.054,0.07-0.083,0.104
	c-0.226,0.201-0.371,0.49-0.371,0.814v4.543c0,0.602,0.488,1.088,1.089,1.09l4.543-0.002c0.374,0,0.702-0.188,0.899-0.475l13-13
	L18.306,207.296z M9.776,225.804H6.638c-0.415,0-0.751-0.336-0.752-0.752v-3.139c0-0.029,0.013-0.055,0.017-0.082l3.956,3.957
	C9.83,225.79,9.806,225.804,9.776,225.804z"/>
<linearGradient id="SVGID_17_" gradientUnits="userSpaceOnUse" x1="160.937" y1="358.585" x2="160.937" y2="381.8711" gradientTransform="matrix(1 0 0 1 -144.9336 -120.5293)">
	<stop  offset="0" style="stop-color:#F2F2F2"/>
	<stop  offset="1" style="stop-color:#BDBDBD"/>
</linearGradient>
<path fill="url(#SVGID_17_)" d="M16.003,238.056c-6.432,0-14.645,5.213-14.645,11.643c0,6.431,8.213,11.644,14.645,11.644
	c6.43,0,14.643-5.213,14.643-11.644C30.646,243.269,22.433,238.056,16.003,238.056z M16.003,257.167
	c-4.125,0-7.469-3.344-7.469-7.469s3.344-7.469,7.469-7.469s7.469,3.344,7.469,7.469S20.128,257.167,16.003,257.167z"/>
<linearGradient id="SVGID_18_" gradientUnits="userSpaceOnUse" x1="160.938" y1="365.6553" x2="160.938" y2="374.8154" gradientTransform="matrix(1 0 0 1 -144.9336 -120.5293)">
	<stop  offset="0" style="stop-color:#F2F2F2"/>
	<stop  offset="1" style="stop-color:#BDBDBD"/>
</linearGradient>
<path fill="url(#SVGID_18_)" d="M16.3,245.126c0.096,0.309,0.146,0.637,0.146,0.977c0,1.814-1.471,3.285-3.287,3.285
	c-0.611,0-1.184-0.17-1.674-0.461c-0.043,0.25-0.07,0.508-0.07,0.771c0,2.533,2.053,4.588,4.588,4.588
	c2.533,0,4.588-2.055,4.588-4.588C20.591,247.265,18.695,245.278,16.3,245.126z"/>
<linearGradient id="SVGID_19_" gradientUnits="userSpaceOnUse" x1="160.937" y1="392.6006" x2="160.937" y2="415.8877" gradientTransform="matrix(1 0 0 1 -144.9336 -120.5293)">
	<stop  offset="0" style="stop-color:#F2F2F2"/>
	<stop  offset="1" style="stop-color:#BDBDBD"/>
</linearGradient>
<path fill="url(#SVGID_19_)" d="M16.002,272.071c-6.43,0-11.643,5.213-11.643,11.645c0,6.43,5.213,11.643,11.643,11.643
	c6.432,0,11.645-5.213,11.645-11.643C27.646,277.284,22.434,272.071,16.002,272.071z M22.256,286.134l-12.512,0.002
	c-1.338,0-2.422-1.084-2.422-2.42c0-1.338,1.084-2.422,2.422-2.422h12.514c1.336,0,2.42,1.084,2.42,2.42
	C24.678,285.052,23.594,286.134,22.256,286.134z"/>
<linearGradient id="SVGID_20_" gradientUnits="userSpaceOnUse" x1="160.937" y1="426.6162" x2="160.937" y2="449.9033" gradientTransform="matrix(1 0 0 1 -144.9336 -120.5293)">
	<stop  offset="0" style="stop-color:#F2F2F2"/>
	<stop  offset="1" style="stop-color:#BDBDBD"/>
</linearGradient>
<path fill="url(#SVGID_20_)" d="M16.002,306.087c-6.43,0-11.643,5.213-11.643,11.645c0,6.43,5.213,11.643,11.643,11.643
	c6.432,0,11.645-5.213,11.645-11.643C27.646,311.3,22.434,306.087,16.002,306.087z M22.258,320.151h-3.836v3.836
	c0,1.338-1.084,2.42-2.42,2.42c-1.338,0-2.422-1.082-2.422-2.42v-3.836H9.744c-1.338,0-2.42-1.082-2.42-2.42
	c-0.002-1.338,1.082-2.422,2.42-2.42h3.836v-3.836c0-1.338,1.084-2.422,2.42-2.422c1.338,0,2.422,1.084,2.422,2.422v3.836h3.836
	c1.336-0.002,2.42,1.082,2.42,2.42S23.594,320.151,22.258,320.151z"/>
<linearGradient id="SVGID_21_" gradientUnits="userSpaceOnUse" x1="194.9526" y1="426.6152" x2="194.9526" y2="449.9023" gradientTransform="matrix(1 0 0 1 -144.9336 -120.5293)">
	<stop  offset="0" style="stop-color:#A2DEF9"/>
	<stop  offset="0.2126" style="stop-color:#96CEED"/>
	<stop  offset="0.5574" style="stop-color:#79B2D9"/>
	<stop  offset="0.9894" style="stop-color:#518DBB"/>
	<stop  offset="1" style="stop-color:#508CBA"/>
</linearGradient>
<path fill="url(#SVGID_21_)" d="M50.018,306.086c-6.43,0-11.643,5.214-11.643,11.645c0,6.43,5.213,11.643,11.643,11.643
	c6.432,0,11.645-5.213,11.645-11.643C61.663,311.3,56.45,306.086,50.018,306.086z M56.274,320.15h-3.836v3.837
	c0.002,1.337-1.082,2.42-2.42,2.42s-2.42-1.083-2.42-2.421l-0.002-3.836l-3.836,0.001c-1.336,0-2.42-1.083-2.42-2.42
	c0-1.338,1.084-2.422,2.422-2.421h3.834v-3.836c0-1.337,1.084-2.422,2.422-2.422s2.422,1.085,2.42,2.422v3.836h3.838
	c1.336-0.001,2.42,1.083,2.42,2.42C58.696,319.068,57.612,320.15,56.274,320.15z"/>
<linearGradient id="SVGID_22_" gradientUnits="userSpaceOnUse" x1="194.9526" y1="392.6006" x2="194.9526" y2="415.8877" gradientTransform="matrix(1 0 0 1 -144.9336 -120.5293)">
	<stop  offset="0" style="stop-color:#A2DEF9"/>
	<stop  offset="0.2126" style="stop-color:#96CEED"/>
	<stop  offset="0.5574" style="stop-color:#79B2D9"/>
	<stop  offset="0.9894" style="stop-color:#518DBB"/>
	<stop  offset="1" style="stop-color:#508CBA"/>
</linearGradient>
<path fill="url(#SVGID_22_)" d="M50.018,272.071c-6.43,0-11.643,5.213-11.643,11.645c0,6.43,5.213,11.643,11.643,11.643
	c6.432,0,11.645-5.213,11.645-11.643C61.663,277.284,56.45,272.071,50.018,272.071z M56.272,286.134l-12.514,0.002
	c-1.336,0-2.42-1.084-2.42-2.42c0-1.338,1.084-2.422,2.422-2.422h12.514c1.336,0,2.42,1.084,2.42,2.42
	C58.694,285.052,57.61,286.134,56.272,286.134z"/>
<linearGradient id="SVGID_23_" gradientUnits="userSpaceOnUse" x1="194.9536" y1="358.585" x2="194.9536" y2="381.8711" gradientTransform="matrix(1 0 0 1 -144.9336 -120.5293)">
	<stop  offset="0" style="stop-color:#A2DEF9"/>
	<stop  offset="0.2126" style="stop-color:#96CEED"/>
	<stop  offset="0.5574" style="stop-color:#79B2D9"/>
	<stop  offset="0.9894" style="stop-color:#518DBB"/>
	<stop  offset="1" style="stop-color:#508CBA"/>
</linearGradient>
<path fill="url(#SVGID_23_)" d="M50.02,238.056c-6.432,0-14.644,5.213-14.644,11.643c0,6.431,8.212,11.644,14.644,11.644
	c6.431,0,14.644-5.213,14.644-11.644C64.664,243.269,56.451,238.056,50.02,238.056z M50.02,257.167
	c-4.125,0-7.469-3.344-7.469-7.469s3.344-7.469,7.469-7.469c4.124,0,7.468,3.344,7.468,7.469S54.144,257.167,50.02,257.167z"/>
<linearGradient id="SVGID_24_" gradientUnits="userSpaceOnUse" x1="194.9536" y1="365.6553" x2="194.9536" y2="374.8154" gradientTransform="matrix(1 0 0 1 -144.9336 -120.5293)">
	<stop  offset="0" style="stop-color:#A2DEF9"/>
	<stop  offset="0.2126" style="stop-color:#96CEED"/>
	<stop  offset="0.5574" style="stop-color:#79B2D9"/>
	<stop  offset="0.9894" style="stop-color:#518DBB"/>
	<stop  offset="1" style="stop-color:#508CBA"/>
</linearGradient>
<path fill="url(#SVGID_24_)" d="M50.317,245.126c0.096,0.309,0.146,0.637,0.146,0.977c0,1.814-1.471,3.285-3.287,3.285
	c-0.611,0-1.184-0.17-1.674-0.461c-0.043,0.25-0.07,0.508-0.07,0.771c0,2.533,2.053,4.588,4.588,4.588
	c2.533,0,4.587-2.055,4.587-4.588C54.607,247.265,52.711,245.278,50.317,245.126z"/>
<linearGradient id="SVGID_25_" gradientUnits="userSpaceOnUse" x1="202.2378" y1="325.0498" x2="202.2378" y2="332.7842" gradientTransform="matrix(1 0 0 1 -144.9336 -120.5293)">
	<stop  offset="0" style="stop-color:#A2DEF9"/>
	<stop  offset="0.2126" style="stop-color:#96CEED"/>
	<stop  offset="0.5574" style="stop-color:#79B2D9"/>
	<stop  offset="0.9894" style="stop-color:#518DBB"/>
	<stop  offset="1" style="stop-color:#508CBA"/>
</linearGradient>
<path fill="url(#SVGID_25_)" d="M60.674,208.687l-3.668-3.668c-0.666-0.664-1.742-0.664-2.406,0l-1.164,1.162l6.074,6.074
	l1.164-1.162C61.338,210.429,61.338,209.351,60.674,208.687z"/>
<linearGradient id="SVGID_26_" gradientUnits="userSpaceOnUse" x1="193.5649" y1="327.8252" x2="193.5649" y2="347.376" gradientTransform="matrix(1 0 0 1 -144.9336 -120.5293)">
	<stop  offset="0" style="stop-color:#A2DEF9"/>
	<stop  offset="0.2126" style="stop-color:#96CEED"/>
	<stop  offset="0.5574" style="stop-color:#79B2D9"/>
	<stop  offset="0.9894" style="stop-color:#518DBB"/>
	<stop  offset="1" style="stop-color:#508CBA"/>
</linearGradient>
<path fill="url(#SVGID_26_)" d="M52.321,207.296l-13.002,13c-0.033,0.035-0.053,0.07-0.082,0.104
	c-0.227,0.201-0.371,0.49-0.371,0.814v4.543c0,0.602,0.488,1.088,1.088,1.09l4.543-0.002c0.375,0,0.703-0.188,0.9-0.475l13-13
	L52.321,207.296z M43.792,225.804h-3.139c-0.414,0-0.75-0.336-0.752-0.752v-3.139c0-0.029,0.014-0.055,0.018-0.082l3.955,3.957
	C43.846,225.79,43.821,225.804,43.792,225.804z"/>
<linearGradient id="SVGID_27_" gradientUnits="userSpaceOnUse" x1="194.9536" y1="288.9473" x2="194.9536" y2="315.4453" gradientTransform="matrix(1 0 0 1 -144.9336 -120.5293)">
	<stop  offset="0" style="stop-color:#A2DEF9"/>
	<stop  offset="0.2126" style="stop-color:#96CEED"/>
	<stop  offset="0.5574" style="stop-color:#79B2D9"/>
	<stop  offset="0.9894" style="stop-color:#518DBB"/>
	<stop  offset="1" style="stop-color:#508CBA"/>
</linearGradient>
<path fill="url(#SVGID_27_)" d="M57.75,168.419H42.291c-3.049,0-5.52,2.471-5.52,5.52v3.182v9.096v3.182
	c0,3.049,2.471,5.52,5.52,5.52H57.75c3.049,0,5.52-2.471,5.52-5.52v-3.182v-9.096v-3.182
	C63.269,170.89,60.798,168.419,57.75,168.419z M50.019,189.136c-4.125,0-7.469-3.344-7.469-7.467c0-4.125,3.344-7.469,7.469-7.469
	s7.469,3.344,7.469,7.469C57.488,185.792,54.144,189.136,50.019,189.136z"/>
<linearGradient id="SVGID_28_" gradientUnits="userSpaceOnUse" x1="194.9526" y1="297.6172" x2="194.9526" y2="306.7754" gradientTransform="matrix(1 0 0 1 -144.9336 -120.5293)">
	<stop  offset="0" style="stop-color:#A2DEF9"/>
	<stop  offset="0.2126" style="stop-color:#96CEED"/>
	<stop  offset="0.5574" style="stop-color:#79B2D9"/>
	<stop  offset="0.9894" style="stop-color:#518DBB"/>
	<stop  offset="1" style="stop-color:#508CBA"/>
</linearGradient>
<path fill="url(#SVGID_28_)" d="M50.316,177.089c0.096,0.307,0.148,0.635,0.148,0.975c0,1.816-1.473,3.287-3.287,3.287
	c-0.613,0-1.184-0.17-1.676-0.463c-0.043,0.252-0.07,0.51-0.07,0.773c0,2.533,2.055,4.586,4.588,4.586
	c2.535,0,4.588-2.053,4.588-4.586C54.607,179.228,52.71,177.241,50.316,177.089z"/>
<linearGradient id="SVGID_29_" gradientUnits="userSpaceOnUse" x1="194.9517" y1="255.0547" x2="194.9517" y2="281.3047" gradientTransform="matrix(1 0 0 1 -144.9336 -120.5293)">
	<stop  offset="0" style="stop-color:#A2DEF9"/>
	<stop  offset="0.2126" style="stop-color:#96CEED"/>
	<stop  offset="0.5574" style="stop-color:#79B2D9"/>
	<stop  offset="0.9894" style="stop-color:#518DBB"/>
	<stop  offset="1" style="stop-color:#508CBA"/>
</linearGradient>
<path fill="url(#SVGID_29_)" d="M58.49,151.733c-1.346,0-2.553,0.592-3.381,1.527l-9.062-3.941c0.014-0.145,0.021-0.291,0.021-0.439
	c0-0.273-0.027-0.539-0.074-0.799l9.588-5.572c0.787,0.66,1.801,1.061,2.908,1.061c2.498,0,4.521-2.023,4.521-4.521
	c0-2.496-2.023-4.521-4.521-4.521c-2.496,0-4.521,2.025-4.521,4.521c0,0.367,0.049,0.721,0.131,1.062l-9.445,5.49
	c-0.811-0.768-1.902-1.242-3.107-1.242c-2.496,0-4.521,2.025-4.521,4.521c0,2.498,2.025,4.521,4.521,4.521
	c1.336,0,2.533-0.582,3.361-1.504l9.082,3.949c-0.012,0.135-0.021,0.27-0.021,0.408c0,2.496,2.025,4.521,4.521,4.521
	c2.498,0,4.521-2.025,4.521-4.521C63.011,153.757,60.988,151.733,58.49,151.733z"/>
<linearGradient id="SVGID_30_" gradientUnits="userSpaceOnUse" x1="194.9517" y1="154.4912" x2="194.9517" y2="177.7783" gradientTransform="matrix(1 0 0 1 -144.9336 -120.5293)">
	<stop  offset="0" style="stop-color:#A2DEF9"/>
	<stop  offset="0.2126" style="stop-color:#96CEED"/>
	<stop  offset="0.5574" style="stop-color:#79B2D9"/>
	<stop  offset="0.9894" style="stop-color:#518DBB"/>
	<stop  offset="1" style="stop-color:#508CBA"/>
</linearGradient>
<path fill="url(#SVGID_30_)" d="M50.019,33.962c-6.432,0-11.645,5.213-11.645,11.645c0,6.43,5.213,11.643,11.645,11.643
	c6.43,0,11.643-5.213,11.643-11.643C61.662,39.175,56.449,33.962,50.019,33.962z M56.154,48.319c0.945,0.943,0.945,2.477,0,3.422
	s-2.477,0.945-3.422,0l-2.713-2.713l-2.713,2.713c-0.945,0.945-2.478,0.945-3.424,0c-0.945-0.945-0.945-2.479,0-3.422l2.713-2.713
	l-2.713-2.713c-0.945-0.945-0.945-2.479,0-3.424c0.946-0.945,2.479-0.945,3.424,0l2.713,2.713l2.712-2.713
	c0.945-0.945,2.478-0.945,3.423,0s0.945,2.479,0,3.424l-2.711,2.713L56.154,48.319z"/>
</svg>
