<?xml version="1.0" encoding="utf-8"?>
<!-- Generator: Adobe Illustrator 15.1.0, SVG Export Plug-In  -->
<!DOCTYPE svg PUBLIC "-//W3C//DTD SVG 1.1//EN" "http://www.w3.org/Graphics/SVG/1.1/DTD/svg11.dtd" [
	<!ENTITY ns_flows "http://ns.adobe.com/Flows/1.0/">
]>
<svg version="1.1"
	 xmlns="http://www.w3.org/2000/svg" xmlns:xlink="http://www.w3.org/1999/xlink" xmlns:a="http://ns.adobe.com/AdobeSVGViewerExtensions/3.0/"
	 x="0px" y="0px" width="12.5em" height="12.5em" viewBox="3.345 2.778 142 142"
	 overflow="visible" enable-background="new 3.345 2.778 142 142" xml:space="preserve">
<defs>
</defs>
<radialGradient id="SVGID_1_" cx="74.0161" cy="74.0161" r="74.0159" gradientUnits="userSpaceOnUse">
	<stop  offset="0" style="stop-color:#FFFFFF"/>
	<stop  offset="0.8369" style="stop-color:#E0E1E2"/>
	<stop  offset="1" style="stop-color:#DADBDC"/>
</radialGradient>
<rect fill="url(#SVGID_1_)" width="148.032" height="148.032"/>
<path fill="#FFFFFF" d="M108.058,47.093c0-0.106-0.011-0.208-0.017-0.313c0.021-0.408,0.014-0.821-0.04-1.239
	c-0.481-3.796-3.949-6.485-7.745-6.004l-38.818,4.915c-3.417,0.434-5.926,3.286-6.047,6.619c-0.003,0.085-0.014,0.169-0.014,0.256
	v22.302c-0.81-0.16-1.646-0.245-2.504-0.245c-7.123,0-12.898,5.775-12.898,12.899c0,7.122,5.775,12.897,12.898,12.897
	s12.898-5.775,12.898-12.897V57.872l31.892-4.038V83c-0.812-0.162-1.648-0.245-2.504-0.245c-7.123,0-12.899,5.773-12.899,12.896
	c0,7.125,5.776,12.898,12.899,12.898c7.122,0,12.898-5.773,12.898-12.898c0-0.107-0.009-0.215-0.011-0.326
	c0.002-0.053,0.011-0.106,0.011-0.164V47.093z"/>
</svg>
