<?xml version="1.0" encoding="utf-8"?>
<!-- Generator: Adobe Illustrator 15.1.0, SVG Export Plug-In . SVG Version: 6.00 Build 0)  -->
<!DOCTYPE svg PUBLIC "-//W3C//DTD SVG 1.1//EN" "http://www.w3.org/Graphics/SVG/1.1/DTD/svg11.dtd">
<svg version="1.1" id="Layer_1" xmlns="http://www.w3.org/2000/svg" xmlns:xlink="http://www.w3.org/1999/xlink" x="0px" y="0px"
	 width="23.8em" height="3.4em" viewBox="0 0 238 34" enable-background="new 0 0 238 34" xml:space="preserve">
<linearGradient id="SVGID_1_" gradientUnits="userSpaceOnUse" x1="7.0454" y1="15.9961" x2="26.7891" y2="15.9961" gradientTransform="matrix(1 0 0 -1 0.1401 33.0547)">
	<stop  offset="0" style="stop-color:#F2F2F2"/>
	<stop  offset="1" style="stop-color:#BDBDBD"/>
</linearGradient>
<path fill="url(#SVGID_1_)" d="M25.905,8.21c-1.363-1.362-3.573-1.362-4.938,0.001l-3.912,3.912l-3.911-3.912
	c-1.363-1.366-3.573-1.366-4.936,0c-1.364,1.364-1.364,3.571,0,4.936l3.911,3.911l-3.91,3.912c-1.364,1.363-1.363,3.572,0.002,4.938
	c1.363,1.361,3.571,1.363,4.936,0l3.912-3.912l3.911,3.912c1.362,1.361,3.571,1.363,4.936,0c1.364-1.365,1.364-3.576,0-4.936
	l-3.912-3.913l3.912-3.913C27.269,11.784,27.269,9.573,25.905,8.21z"/>
<linearGradient id="SVGID_2_" gradientUnits="userSpaceOnUse" x1="41.0596" y1="15.9961" x2="60.8022" y2="15.9961" gradientTransform="matrix(1 0 0 -1 0.1401 33.0547)">
	<stop  offset="0" style="stop-color:#A2DEF9"/>
	<stop  offset="0.2126" style="stop-color:#96CEED"/>
	<stop  offset="0.5574" style="stop-color:#79B2D9"/>
	<stop  offset="0.9894" style="stop-color:#518DBB"/>
	<stop  offset="1" style="stop-color:#508CBA"/>
</linearGradient>
<path fill="url(#SVGID_2_)" d="M59.92,8.21c-1.363-1.362-3.574-1.362-4.938,0.001l-3.912,3.912l-3.911-3.912
	c-1.362-1.366-3.573-1.366-4.936,0c-1.364,1.364-1.364,3.571,0,4.936l3.911,3.911l-3.911,3.913
	c-1.364,1.363-1.362,3.572,0.002,4.938c1.362,1.36,3.571,1.362,4.936,0l3.911-3.912l3.912,3.912c1.361,1.36,3.57,1.362,4.936,0
	c1.363-1.365,1.363-3.576,0-4.937l-3.912-3.912l3.912-3.913C61.283,11.784,61.283,9.573,59.92,8.21z"/>
<path fill="#49484A" d="M93.936,8.21c-1.363-1.362-3.573-1.362-4.938,0.001l-3.912,3.912l-3.911-3.912
	c-1.363-1.366-3.573-1.366-4.936,0c-1.364,1.364-1.364,3.571,0,4.936l3.911,3.911l-3.91,3.912c-1.364,1.363-1.363,3.572,0.002,4.938
	c1.363,1.361,3.571,1.363,4.936,0l3.912-3.912L89,25.908c1.362,1.361,3.571,1.363,4.936,0c1.364-1.365,1.364-3.576,0-4.936
	l-3.912-3.913l3.912-3.913C95.299,11.784,95.299,9.573,93.936,8.21z"/>
<path fill="#5F6060" d="M127.95,8.21c-1.363-1.362-3.574-1.362-4.938,0.001l-3.912,3.912l-3.911-3.912
	c-1.362-1.366-3.573-1.366-4.936,0c-1.364,1.364-1.364,3.571,0,4.936l3.911,3.911l-3.911,3.913
	c-1.364,1.363-1.362,3.572,0.002,4.938c1.362,1.36,3.571,1.362,4.936,0l3.911-3.912l3.912,3.912c1.361,1.36,3.57,1.362,4.937,0
	c1.362-1.365,1.362-3.576,0-4.937l-3.912-3.912l3.912-3.913C129.312,11.784,129.312,9.573,127.95,8.21z"/>
<path fill="#FFFFFF" d="M161.966,8.21c-1.362-1.362-3.573-1.362-4.938,0.001l-3.91,3.912l-3.912-3.912
	c-1.362-1.366-3.572-1.366-4.936,0c-1.363,1.364-1.363,3.571,0,4.936l3.912,3.911l-3.912,3.913
	c-1.363,1.363-1.362,3.572,0.002,4.938c1.362,1.36,3.57,1.362,4.936,0l3.912-3.912l3.91,3.912c1.363,1.36,3.572,1.362,4.937,0
	c1.364-1.365,1.364-3.576,0-4.937l-3.911-3.912l3.911-3.913C163.33,11.784,163.33,9.573,161.966,8.21z"/>
<path fill="#43A748" d="M195.98,8.21c-1.363-1.362-3.574-1.362-4.938,0.001l-3.912,3.912l-3.911-3.912
	c-1.361-1.366-3.572-1.366-4.936,0c-1.364,1.364-1.364,3.571,0,4.936l3.91,3.911l-3.91,3.913c-1.364,1.363-1.362,3.572,0.002,4.938
	c1.361,1.36,3.57,1.362,4.936,0l3.911-3.912l3.912,3.912c1.36,1.36,3.569,1.362,4.937,0c1.362-1.365,1.362-3.576,0-4.937
	l-3.912-3.912l3.912-3.913C197.344,11.784,197.344,9.573,195.98,8.21z"/>
<path fill="#F09622" d="M229.996,8.21c-1.363-1.362-3.574-1.362-4.938,0.001l-3.912,3.912l-3.912-3.912
	c-1.361-1.366-3.572-1.366-4.936,0c-1.363,1.364-1.363,3.571,0,4.936l3.911,3.911l-3.91,3.912c-1.364,1.363-1.362,3.572,0.003,4.938
	c1.361,1.361,3.57,1.363,4.936,0l3.91-3.912l3.912,3.912c1.361,1.361,3.57,1.363,4.937,0c1.362-1.365,1.362-3.576,0-4.936
	l-3.912-3.913l3.912-3.913C231.359,11.784,231.359,9.573,229.996,8.21z"/>
</svg>
