<?xml version="1.0" encoding="utf-8"?>
<!-- Generator: Adobe Illustrator 15.1.0, SVG Export Plug-In . SVG Version: 6.00 Build 0)  -->
<!DOCTYPE svg PUBLIC "-//W3C//DTD SVG 1.1//EN" "http://www.w3.org/Graphics/SVG/1.1/DTD/svg11.dtd">
<svg version="1.1" id="Layer_1" xmlns="http://www.w3.org/2000/svg" xmlns:xlink="http://www.w3.org/1999/xlink" x="0px" y="0px"
	 width="60px" height="60px" viewBox="0 0 60 60" enable-background="new 0 0 60 60" xml:space="preserve">
<circle fill="#26A9E0" cx="30" cy="30" r="29"/>
<g enable-background="new    ">
	<path fill="#FFFFFF" d="M9.101,37.975c-0.387,0-0.708-0.079-0.961-0.236c-0.254-0.157-0.457-0.365-0.607-0.623
		s-0.254-0.55-0.312-0.875c-0.058-0.326-0.086-0.661-0.086-1.005V25.138c0-0.479,0.046-0.896,0.14-1.246
		c0.093-0.351,0.247-0.638,0.462-0.859s0.496-0.387,0.843-0.494c0.347-0.107,0.775-0.161,1.284-0.161h2.664
		c2.929,0,5.138,0.646,6.628,1.939c1.489,1.292,2.234,3.281,2.234,5.967c0,1.311-0.204,2.449-0.612,3.416s-0.987,1.768-1.735,2.4
		c-0.749,0.635-1.649,1.105-2.702,1.413s-2.22,0.462-3.502,0.462H9.101z M11.066,35.568h1.472c0.816,0,1.518-0.093,2.105-0.279
		c0.587-0.187,1.072-0.505,1.456-0.956c0.383-0.451,0.666-1.012,0.849-1.681c0.183-0.67,0.274-1.492,0.274-2.466
		c0-1.812-0.376-3.162-1.128-4.05s-1.905-1.332-3.459-1.332h-1.568V35.568z"/>
	<path fill="#FFFFFF" d="M23.001,30.187c0-1.182,0.159-2.273,0.478-3.276c0.318-1.003,0.796-1.865,1.434-2.589
		c0.637-0.724,1.436-1.289,2.396-1.697c0.959-0.408,2.084-0.612,3.373-0.612c1.253,0,2.359,0.197,3.319,0.591
		s1.762,0.95,2.406,1.671c0.645,0.719,1.132,1.58,1.461,2.583s0.494,2.112,0.494,3.33c0,1.196-0.161,2.295-0.483,3.298
		s-0.806,1.863-1.45,2.584c-0.645,0.719-1.446,1.279-2.406,1.681s-2.073,0.602-3.341,0.602c-1.239,0-2.336-0.193-3.292-0.58
		s-1.76-0.937-2.412-1.649c-0.652-0.712-1.144-1.569-1.477-2.572S23.001,31.426,23.001,30.187z M27.18,30.187
		c0,1.776,0.283,3.117,0.849,4.022c0.565,0.906,1.45,1.359,2.653,1.359c1.182,0,2.062-0.451,2.643-1.354s0.87-2.245,0.87-4.028
		c0-0.859-0.069-1.624-0.21-2.294c-0.139-0.669-0.353-1.233-0.639-1.691c-0.287-0.458-0.65-0.808-1.09-1.047
		c-0.441-0.24-0.966-0.36-1.574-0.36c-0.602,0-1.123,0.12-1.563,0.36c-0.44,0.239-0.804,0.589-1.09,1.047
		c-0.287,0.458-0.5,1.022-0.639,1.691C27.25,28.562,27.18,29.327,27.18,30.187z"/>
	<path fill="#FFFFFF" d="M40.264,30.305c0-1.304,0.191-2.469,0.574-3.496c0.384-1.028,0.919-1.896,1.606-2.605
		s1.506-1.252,2.454-1.627c0.949-0.377,1.989-0.564,3.121-0.564c0.896,0,1.674,0.056,2.336,0.166
		c0.663,0.111,1.213,0.264,1.649,0.457s0.763,0.423,0.978,0.688s0.322,0.552,0.322,0.859c0,0.208-0.043,0.389-0.129,0.543
		c-0.086,0.153-0.199,0.28-0.338,0.381c-0.141,0.101-0.296,0.174-0.468,0.221c-0.172,0.046-0.344,0.069-0.516,0.069
		c-0.101,0-0.2-0.002-0.301-0.005c-0.101-0.004-0.197-0.021-0.29-0.049c-0.272-0.071-0.531-0.142-0.779-0.209
		c-0.246-0.068-0.49-0.128-0.73-0.178c-0.239-0.05-0.479-0.092-0.719-0.123c-0.24-0.033-0.489-0.049-0.747-0.049
		c-0.537,0-1.044,0.08-1.521,0.242c-0.476,0.16-0.89,0.445-1.24,0.854s-0.629,0.961-0.832,1.66
		c-0.205,0.697-0.307,1.588-0.307,2.669c0,0.831,0.082,1.577,0.247,2.239c0.165,0.663,0.41,1.225,0.735,1.688
		c0.326,0.461,0.734,0.816,1.225,1.062c0.491,0.248,1.062,0.371,1.714,0.371c0.265,0,0.541-0.028,0.827-0.086
		s0.58-0.131,0.881-0.221c0.301-0.089,0.607-0.191,0.918-0.306c0.312-0.114,0.622-0.229,0.93-0.344
		c0.093-0.028,0.208-0.043,0.344-0.043c0.179,0,0.342,0.034,0.488,0.103c0.147,0.067,0.274,0.159,0.382,0.273
		s0.189,0.249,0.247,0.402c0.058,0.154,0.086,0.317,0.086,0.489c0,0.279-0.092,0.535-0.273,0.769
		c-0.184,0.232-0.425,0.441-0.726,0.628s-0.646,0.349-1.036,0.489c-0.391,0.139-0.794,0.256-1.209,0.349s-0.829,0.163-1.24,0.21
		c-0.412,0.046-0.794,0.069-1.145,0.069c-1.06,0-2.048-0.177-2.965-0.532c-0.917-0.354-1.712-0.873-2.385-1.557
		c-0.673-0.685-1.203-1.525-1.59-2.525C40.457,32.738,40.264,31.594,40.264,30.305z"/>
</g>
</svg>
