<?xml version="1.0" encoding="utf-8"?>
<!-- Generator: Adobe Illustrator 15.1.0, SVG Export Plug-In . SVG Version: 6.00 Build 0)  -->
<!DOCTYPE svg PUBLIC "-//W3C//DTD SVG 1.1//EN" "http://www.w3.org/Graphics/SVG/1.1/DTD/svg11.dtd">
<svg version="1.1" id="Layer_1" xmlns="http://www.w3.org/2000/svg" xmlns:xlink="http://www.w3.org/1999/xlink" x="0px" y="0px"
	 width="60px" height="60px" viewBox="0 0 60 60" enable-background="new 0 0 60 60" xml:space="preserve">
<circle fill="#37B34A" cx="30" cy="30" r="29"/>
<g enable-background="new    ">
	<path fill="#FFFFFF" d="M13.323,37.019c-0.229,0.337-0.487,0.58-0.773,0.73c-0.287,0.15-0.569,0.226-0.849,0.226
		c-0.208,0-0.403-0.037-0.585-0.113c-0.183-0.074-0.342-0.181-0.478-0.316c-0.136-0.136-0.246-0.299-0.328-0.488
		c-0.083-0.19-0.124-0.399-0.124-0.629s0.044-0.473,0.134-0.73c0.089-0.258,0.238-0.526,0.446-0.806l3.642-4.92l-3.438-4.619
		c-0.158-0.208-0.271-0.415-0.338-0.623c-0.068-0.208-0.102-0.408-0.102-0.602c0-0.251,0.048-0.483,0.145-0.698
		s0.226-0.399,0.387-0.553c0.161-0.154,0.349-0.276,0.564-0.365c0.215-0.09,0.437-0.135,0.666-0.135
		c0.279,0,0.559,0.079,0.838,0.236s0.533,0.408,0.763,0.752l3.04,4.512l3.029-4.404c0.272-0.394,0.56-0.675,0.865-0.844
		c0.304-0.168,0.6-0.252,0.886-0.252c0.215,0,0.419,0.041,0.612,0.123c0.193,0.083,0.361,0.193,0.505,0.334
		c0.143,0.139,0.256,0.302,0.338,0.488c0.082,0.187,0.124,0.383,0.124,0.591c0,0.358-0.125,0.709-0.376,1.053l-3.728,5.006
		l3.76,5.178c0.122,0.165,0.209,0.337,0.263,0.516s0.081,0.351,0.081,0.516c0,0.236-0.048,0.464-0.145,0.683
		c-0.097,0.218-0.226,0.409-0.387,0.574s-0.348,0.297-0.559,0.397c-0.211,0.101-0.435,0.15-0.671,0.15
		c-0.279,0-0.562-0.081-0.849-0.241c-0.287-0.162-0.555-0.432-0.806-0.812l-3.201-4.748L13.323,37.019z"/>
	<path fill="#FFFFFF" d="M35.108,35.117c0.193,0,0.378,0.037,0.554,0.113c0.175,0.074,0.327,0.177,0.456,0.306
		s0.231,0.281,0.306,0.456c0.076,0.176,0.113,0.36,0.113,0.554S36.5,36.924,36.424,37.1c-0.074,0.175-0.177,0.327-0.306,0.456
		s-0.281,0.231-0.456,0.306c-0.176,0.076-0.36,0.113-0.554,0.113H27.75c-0.387,0-0.709-0.084-0.967-0.252
		c-0.258-0.169-0.464-0.391-0.618-0.666c-0.154-0.276-0.262-0.59-0.322-0.94c-0.061-0.351-0.091-0.709-0.091-1.074V24.461
		c0-0.294,0.052-0.567,0.156-0.822c0.104-0.254,0.245-0.476,0.424-0.666c0.179-0.189,0.388-0.338,0.628-0.445
		c0.24-0.107,0.5-0.161,0.779-0.161s0.539,0.054,0.779,0.161c0.24,0.107,0.451,0.256,0.634,0.445c0.183,0.19,0.326,0.412,0.43,0.666
		c0.104,0.255,0.156,0.528,0.156,0.822l0.011,10.656H35.108z"/>
	<path fill="#FFFFFF" d="M41.317,26.448c0,0.344,0.114,0.634,0.344,0.87s0.528,0.44,0.897,0.612
		c0.368,0.172,0.785,0.322,1.251,0.451s0.935,0.262,1.407,0.397c0.759,0.229,1.448,0.473,2.068,0.73
		c0.619,0.258,1.148,0.565,1.59,0.924c0.439,0.358,0.78,0.782,1.02,1.273c0.24,0.49,0.36,1.079,0.36,1.767
		c0,0.752-0.148,1.429-0.446,2.03c-0.297,0.602-0.725,1.113-1.283,1.536s-1.233,0.747-2.025,0.972
		c-0.791,0.227-1.681,0.339-2.669,0.339c-0.509,0-1.021-0.03-1.536-0.091c-0.516-0.062-1.014-0.149-1.493-0.264
		s-0.931-0.254-1.354-0.419s-0.792-0.351-1.106-0.559c-0.315-0.208-0.562-0.435-0.741-0.683c-0.179-0.246-0.269-0.51-0.269-0.789
		c0-0.179,0.037-0.354,0.113-0.526c0.074-0.172,0.172-0.327,0.289-0.468c0.119-0.139,0.251-0.252,0.398-0.338
		c0.146-0.086,0.291-0.129,0.435-0.129c0.129,0,0.254,0.021,0.376,0.064c0.121,0.043,0.245,0.095,0.371,0.156
		c0.125,0.061,0.254,0.127,0.387,0.198c0.132,0.071,0.273,0.136,0.424,0.193c0.494,0.222,1.049,0.423,1.665,0.602
		s1.261,0.269,1.934,0.269c0.365,0,0.711-0.034,1.036-0.102c0.326-0.068,0.613-0.172,0.859-0.312
		c0.248-0.139,0.442-0.32,0.586-0.542s0.215-0.49,0.215-0.806c0-0.236-0.043-0.447-0.129-0.634s-0.204-0.349-0.354-0.489
		c-0.15-0.139-0.326-0.261-0.526-0.365c-0.2-0.104-0.412-0.194-0.634-0.273l-0.483-0.172c-0.093-0.028-0.183-0.059-0.269-0.092
		c-0.086-0.031-0.179-0.062-0.279-0.091l-0.559-0.161c-0.122-0.028-0.226-0.056-0.312-0.08c-0.086-0.025-0.163-0.051-0.23-0.076
		c-0.068-0.024-0.135-0.05-0.199-0.074c-0.064-0.025-0.14-0.053-0.226-0.081l-1.01-0.354c-0.651-0.236-1.21-0.483-1.676-0.741
		s-0.845-0.548-1.139-0.87s-0.511-0.689-0.649-1.102c-0.141-0.411-0.21-0.89-0.21-1.434c0-0.716,0.148-1.364,0.446-1.944
		c0.297-0.58,0.723-1.074,1.277-1.482c0.556-0.408,1.229-0.724,2.02-0.945c0.792-0.222,1.682-0.333,2.67-0.333
		c0.358,0,0.748,0.023,1.171,0.07c0.423,0.046,0.845,0.116,1.268,0.209s0.829,0.213,1.22,0.359c0.39,0.147,0.735,0.319,1.036,0.516
		c0.301,0.197,0.542,0.421,0.726,0.672c0.182,0.251,0.273,0.53,0.273,0.838c0,0.179-0.034,0.344-0.102,0.494
		c-0.068,0.15-0.16,0.279-0.274,0.387s-0.249,0.191-0.403,0.252C48.71,25.87,48.551,25.9,48.386,25.9
		c-0.215,0-0.412-0.047-0.591-0.14c-0.337-0.172-0.65-0.318-0.939-0.44c-0.291-0.122-0.579-0.222-0.865-0.301
		s-0.582-0.136-0.887-0.172c-0.304-0.036-0.639-0.054-1.004-0.054c-0.344,0-0.682,0.03-1.016,0.091
		c-0.332,0.062-0.63,0.158-0.891,0.291c-0.262,0.132-0.473,0.302-0.635,0.51C41.398,25.894,41.317,26.147,41.317,26.448z"/>
</g>
</svg>
