<?xml version="1.0" encoding="utf-8"?>
<!-- Generator: Adobe Illustrator 15.1.0, SVG Export Plug-In . SVG Version: 6.00 Build 0)  -->
<!DOCTYPE svg PUBLIC "-//W3C//DTD SVG 1.1//EN" "http://www.w3.org/Graphics/SVG/1.1/DTD/svg11.dtd">
<svg version="1.1" id="Layer_1" xmlns="http://www.w3.org/2000/svg" xmlns:xlink="http://www.w3.org/1999/xlink" x="0px" y="0px"
	 width="60px" height="60px" viewBox="0 0 60 60" enable-background="new 0 0 60 60" xml:space="preserve">
<circle fill="#EC1C24" cx="30" cy="30" r="29"/>
<g enable-background="new    ">
	<path fill="#FFFFFF" d="M12.84,35.88c0,0.294-0.054,0.567-0.161,0.821c-0.107,0.255-0.252,0.477-0.435,0.666
		c-0.183,0.19-0.394,0.339-0.634,0.446c-0.24,0.107-0.5,0.161-0.779,0.161s-0.539-0.054-0.779-0.161
		c-0.24-0.107-0.45-0.256-0.628-0.446C9.245,37.178,9.103,36.956,9,36.701c-0.104-0.254-0.156-0.527-0.156-0.821V25.32
		c0-0.408,0.027-0.793,0.081-1.154c0.054-0.362,0.168-0.676,0.344-0.94c0.175-0.265,0.433-0.475,0.773-0.628
		c0.34-0.154,0.8-0.231,1.38-0.231H15.3c0.823,0,1.617,0.071,2.379,0.215s1.438,0.396,2.025,0.757
		c0.587,0.362,1.056,0.854,1.407,1.478c0.351,0.623,0.526,1.411,0.526,2.363c0,0.823-0.152,1.538-0.457,2.144
		c-0.305,0.604-0.734,1.107-1.289,1.509c-0.555,0.401-1.223,0.7-2.003,0.897c-0.781,0.196-1.644,0.295-2.589,0.295h-2.46V35.88z
		 M14.645,29.628c0.458,0,0.877-0.039,1.257-0.118c0.379-0.079,0.704-0.209,0.972-0.393c0.269-0.182,0.478-0.424,0.628-0.725
		s0.226-0.705,0.226-1.214c0-0.501-0.072-0.897-0.215-1.187c-0.144-0.291-0.342-0.525-0.596-0.704
		c-0.254-0.179-0.559-0.308-0.913-0.387s-0.747-0.118-1.176-0.118H12.84v4.845H14.645z"/>
	<path fill="#FFFFFF" d="M25.655,37.975c-0.387,0-0.708-0.079-0.961-0.236c-0.254-0.157-0.457-0.365-0.607-0.623
		s-0.254-0.55-0.312-0.875c-0.058-0.326-0.086-0.661-0.086-1.005V25.138c0-0.479,0.046-0.896,0.14-1.246
		c0.093-0.351,0.247-0.638,0.462-0.859s0.496-0.387,0.843-0.494c0.347-0.107,0.775-0.161,1.284-0.161h2.664
		c2.929,0,5.139,0.646,6.628,1.939c1.489,1.292,2.234,3.281,2.234,5.967c0,1.311-0.204,2.449-0.612,3.416s-0.986,1.768-1.734,2.4
		c-0.749,0.635-1.649,1.105-2.702,1.413s-2.22,0.462-3.502,0.462H25.655z M27.621,35.568h1.472c0.816,0,1.519-0.093,2.105-0.279
		s1.072-0.505,1.456-0.956c0.383-0.451,0.666-1.012,0.848-1.681c0.184-0.67,0.274-1.492,0.274-2.466c0-1.812-0.376-3.162-1.128-4.05
		s-1.905-1.332-3.459-1.332h-1.568V35.568z"/>
	<path fill="#FFFFFF" d="M49.32,28.607c0.193,0,0.374,0.036,0.542,0.107c0.169,0.071,0.317,0.172,0.446,0.301
		s0.229,0.277,0.301,0.445c0.071,0.169,0.107,0.35,0.107,0.543s-0.036,0.374-0.107,0.543c-0.071,0.168-0.172,0.314-0.301,0.439
		c-0.129,0.126-0.277,0.225-0.446,0.296c-0.168,0.071-0.349,0.107-0.542,0.107h-4.855l-0.011,4.49c0,0.294-0.052,0.567-0.156,0.821
		c-0.104,0.255-0.246,0.477-0.43,0.666c-0.182,0.19-0.394,0.339-0.633,0.446c-0.24,0.107-0.5,0.161-0.779,0.161
		s-0.539-0.054-0.779-0.161c-0.239-0.107-0.449-0.256-0.628-0.446c-0.179-0.189-0.32-0.411-0.425-0.666
		c-0.104-0.254-0.155-0.527-0.155-0.821V24.364c0-0.344,0.068-0.641,0.204-0.892s0.318-0.457,0.548-0.617
		c0.229-0.162,0.498-0.281,0.806-0.36s0.63-0.118,0.967-0.118h6.66c0.193,0,0.374,0.037,0.543,0.113
		c0.168,0.074,0.316,0.175,0.445,0.301c0.129,0.125,0.229,0.273,0.301,0.445s0.107,0.354,0.107,0.548s-0.036,0.374-0.107,0.542
		c-0.071,0.169-0.172,0.315-0.301,0.441c-0.129,0.125-0.277,0.224-0.445,0.295c-0.169,0.071-0.35,0.107-0.543,0.107h-5.188v3.438
		H49.32z"/>
</g>
</svg>
