<?xml version="1.0" encoding="utf-8"?>
<!-- Generator: Adobe Illustrator 15.1.0, SVG Export Plug-In . SVG Version: 6.00 Build 0)  -->
<!DOCTYPE svg PUBLIC "-//W3C//DTD SVG 1.1//EN" "http://www.w3.org/Graphics/SVG/1.1/DTD/svg11.dtd">
<svg version="1.1" id="Layer_1" xmlns="http://www.w3.org/2000/svg" xmlns:xlink="http://www.w3.org/1999/xlink" x="0px" y="0px"
	 width="60px" height="60px" viewBox="0 0 60 60" enable-background="new 0 0 60 60" xml:space="preserve">
<circle fill="#F6921E" cx="30" cy="30" r="29"/>
<g enable-background="new    ">
	<path fill="#FFFFFF" d="M14.279,35c0,0.294-0.053,0.567-0.16,0.821c-0.107,0.255-0.253,0.477-0.436,0.666
		c-0.183,0.19-0.395,0.339-0.634,0.446c-0.24,0.107-0.499,0.161-0.778,0.161s-0.539-0.054-0.779-0.161s-0.449-0.256-0.629-0.446
		c-0.179-0.189-0.32-0.411-0.424-0.666c-0.104-0.254-0.156-0.527-0.156-0.821V24.44c0-0.408,0.027-0.793,0.081-1.154
		c0.054-0.362,0.168-0.676,0.344-0.94c0.175-0.265,0.433-0.475,0.773-0.628c0.34-0.154,0.8-0.231,1.38-0.231h3.879
		c0.822,0,1.616,0.071,2.379,0.215s1.438,0.396,2.025,0.757c0.586,0.362,1.056,0.854,1.406,1.478
		c0.352,0.623,0.527,1.411,0.527,2.363c0,0.823-0.152,1.538-0.457,2.144c-0.305,0.604-0.734,1.107-1.289,1.509
		s-1.223,0.7-2.004,0.897c-0.78,0.196-1.643,0.295-2.588,0.295h-2.461V35z M16.083,28.748c0.459,0,0.877-0.039,1.258-0.118
		c0.379-0.079,0.703-0.209,0.972-0.393c0.269-0.182,0.478-0.424,0.628-0.725s0.227-0.705,0.227-1.214
		c0-0.501-0.072-0.897-0.215-1.187c-0.145-0.291-0.343-0.525-0.597-0.704c-0.255-0.179-0.559-0.308-0.913-0.387
		s-0.746-0.118-1.176-0.118h-1.988v4.845H16.083z"/>
	<path fill="#FFFFFF" d="M29.222,35c0,0.294-0.055,0.567-0.162,0.821c-0.107,0.255-0.252,0.477-0.435,0.666
		c-0.183,0.19-0.394,0.339-0.634,0.446s-0.5,0.161-0.779,0.161s-0.539-0.054-0.778-0.161c-0.24-0.107-0.45-0.256-0.628-0.446
		c-0.18-0.189-0.321-0.411-0.425-0.666c-0.104-0.254-0.155-0.527-0.155-0.821V24.44c0-0.408,0.026-0.793,0.08-1.154
		c0.054-0.362,0.168-0.676,0.344-0.94s0.434-0.475,0.773-0.628c0.34-0.154,0.801-0.231,1.381-0.231h3.877
		c0.824,0,1.617,0.071,2.379,0.215c0.764,0.144,1.438,0.396,2.025,0.757c0.588,0.362,1.057,0.854,1.408,1.478
		c0.35,0.623,0.525,1.411,0.525,2.363c0,0.823-0.152,1.538-0.457,2.144c-0.305,0.604-0.734,1.107-1.289,1.509
		s-1.223,0.7-2.002,0.897c-0.781,0.196-1.645,0.295-2.59,0.295h-2.459V35z M31.027,28.748c0.457,0,0.877-0.039,1.256-0.118
		s0.703-0.209,0.973-0.393c0.268-0.182,0.479-0.424,0.629-0.725s0.225-0.705,0.225-1.214c0-0.501-0.072-0.897-0.215-1.187
		c-0.143-0.291-0.342-0.525-0.596-0.704s-0.559-0.308-0.914-0.387c-0.354-0.079-0.746-0.118-1.176-0.118h-1.987v4.845H31.027z"/>
	<path fill="#FFFFFF" d="M40.266,24.333c-0.209,0-0.404-0.037-0.592-0.113c-0.186-0.074-0.35-0.177-0.488-0.306
		c-0.141-0.129-0.252-0.279-0.334-0.451s-0.123-0.354-0.123-0.548s0.041-0.378,0.123-0.553c0.082-0.176,0.193-0.328,0.334-0.457
		c0.139-0.129,0.303-0.23,0.488-0.307c0.188-0.074,0.383-0.112,0.592-0.112h9.807c0.209,0,0.404,0.038,0.592,0.112
		c0.186,0.076,0.348,0.178,0.488,0.307c0.139,0.129,0.25,0.281,0.332,0.457c0.084,0.175,0.125,0.359,0.125,0.553
		s-0.041,0.376-0.125,0.548c-0.082,0.172-0.193,0.322-0.332,0.451c-0.141,0.129-0.303,0.231-0.488,0.306
		c-0.188,0.076-0.383,0.113-0.592,0.113h-2.879V35c0,0.294-0.051,0.567-0.156,0.821c-0.104,0.255-0.246,0.477-0.43,0.666
		c-0.182,0.19-0.393,0.339-0.633,0.446s-0.5,0.161-0.779,0.161s-0.539-0.054-0.779-0.161c-0.238-0.107-0.449-0.256-0.627-0.446
		c-0.18-0.189-0.32-0.411-0.426-0.666c-0.104-0.254-0.154-0.527-0.154-0.821V24.333H40.266z"/>
</g>
</svg>
