<?xml version="1.0" encoding="utf-8"?>
<!-- Generator: Adobe Illustrator 15.1.0, SVG Export Plug-In . SVG Version: 6.00 Build 0)  -->
<!DOCTYPE svg PUBLIC "-//W3C//DTD SVG 1.1//EN" "http://www.w3.org/Graphics/SVG/1.1/DTD/svg11.dtd">
<svg version="1.1" id="Layer_1" xmlns="http://www.w3.org/2000/svg" xmlns:xlink="http://www.w3.org/1999/xlink" x="0px" y="0px"
	 width="60px" height="60px" viewBox="0 0 60 60" enable-background="new 0 0 60 60" xml:space="preserve">
<circle fill="#A6A8AB" cx="30" cy="30" r="29"/>
<g>
	<path fill="#F1F1F2" d="M39.932,49.011H20.065c-2.873,0-5.21-2.337-5.21-5.21v-26.63c0-2.873,2.337-5.21,5.21-5.21h19.867
		c2.874,0,5.212,2.337,5.212,5.21v26.63C45.144,46.674,42.806,49.011,39.932,49.011z M20.065,15.689
		c-0.817,0-1.482,0.665-1.482,1.481v26.63c0,0.817,0.665,1.481,1.482,1.481h19.867c0.818,0,1.483-0.664,1.483-1.481v-26.63
		c0-0.817-0.665-1.481-1.483-1.481H20.065z"/>
</g>
<g>
	<g>
		<rect x="24.02" y="21.477" fill="#F1F1F2" width="11.65" height="3.729"/>
	</g>
	<g>
		<rect x="24.02" y="28.622" fill="#F1F1F2" width="11.65" height="3.728"/>
	</g>
	<g>
		<rect x="24.02" y="35.768" fill="#F1F1F2" width="11.65" height="3.729"/>
	</g>
</g>
</svg>
