<?xml version="1.0" encoding="utf-8"?>
<!-- Generator: Adobe Illustrator 15.1.0, SVG Export Plug-In . SVG Version: 6.00 Build 0)  -->
<!DOCTYPE svg PUBLIC "-//W3C//DTD SVG 1.1//EN" "http://www.w3.org/Graphics/SVG/1.1/DTD/svg11.dtd">
<svg version="1.1" id="Layer_1" xmlns="http://www.w3.org/2000/svg" xmlns:xlink="http://www.w3.org/1999/xlink" x="0px" y="0px"
	 width="60px" height="60px" viewBox="0 0 60 60" enable-background="new 0 0 60 60" xml:space="preserve">
<circle fill="#58595B" cx="30" cy="30" r="29"/>
<g enable-background="new    ">
	<path fill="#FFFFFF" d="M24.485,35.192c0.193,0,0.374,0.036,0.542,0.107c0.168,0.071,0.317,0.172,0.446,0.301
		s0.229,0.277,0.301,0.446c0.071,0.168,0.107,0.349,0.107,0.542s-0.036,0.374-0.107,0.542c-0.072,0.169-0.172,0.315-0.301,0.441
		c-0.129,0.125-0.278,0.224-0.446,0.295c-0.168,0.071-0.349,0.107-0.542,0.107h-9.399c-0.258,0-0.487-0.034-0.688-0.102
		c-0.201-0.068-0.367-0.162-0.5-0.279c-0.133-0.119-0.233-0.258-0.301-0.42c-0.068-0.16-0.102-0.331-0.102-0.51
		c0-0.236,0.066-0.505,0.199-0.806c0.132-0.301,0.292-0.584,0.478-0.849c1.167-1.647,2.326-3.291,3.475-4.931
		s2.304-3.283,3.464-4.931h-6.069c-0.193,0-0.375-0.036-0.542-0.107c-0.168-0.071-0.315-0.17-0.44-0.295
		c-0.125-0.126-0.224-0.272-0.295-0.441c-0.072-0.168-0.107-0.349-0.107-0.542s0.036-0.374,0.107-0.542
		c0.071-0.169,0.17-0.317,0.295-0.446c0.125-0.129,0.272-0.229,0.44-0.301c0.168-0.071,0.349-0.107,0.542-0.107h9.002
		c0.25,0,0.485,0.023,0.704,0.069c0.218,0.047,0.41,0.122,0.575,0.227c0.165,0.104,0.295,0.241,0.392,0.413s0.145,0.38,0.145,0.623
		s-0.066,0.509-0.199,0.795c-0.133,0.286-0.289,0.555-0.467,0.806l-6.982,9.894H24.485z"/>
	<path fill="#FFFFFF" d="M32.273,35.88c0,0.294-0.053,0.567-0.156,0.821c-0.104,0.255-0.246,0.477-0.43,0.666
		c-0.182,0.19-0.394,0.339-0.633,0.446c-0.24,0.107-0.5,0.161-0.779,0.161s-0.539-0.054-0.779-0.161
		c-0.24-0.107-0.45-0.256-0.628-0.446c-0.179-0.189-0.321-0.411-0.424-0.666c-0.104-0.254-0.156-0.527-0.156-0.821V24.461
		c0-0.294,0.052-0.567,0.156-0.822c0.104-0.254,0.245-0.476,0.424-0.666c0.179-0.189,0.388-0.338,0.628-0.445
		c0.24-0.107,0.5-0.161,0.779-0.161s0.539,0.054,0.779,0.161c0.239,0.107,0.451,0.256,0.633,0.445
		c0.184,0.19,0.326,0.412,0.43,0.666c0.104,0.255,0.156,0.528,0.156,0.822V35.88z"/>
	<path fill="#FFFFFF" d="M39.61,35.88c0,0.294-0.054,0.567-0.161,0.821c-0.107,0.255-0.252,0.477-0.436,0.666
		c-0.182,0.19-0.394,0.339-0.633,0.446c-0.24,0.107-0.5,0.161-0.779,0.161s-0.539-0.054-0.779-0.161s-0.449-0.256-0.628-0.446
		c-0.179-0.189-0.321-0.411-0.425-0.666c-0.104-0.254-0.155-0.527-0.155-0.821V25.32c0-0.408,0.026-0.793,0.081-1.154
		c0.053-0.362,0.168-0.676,0.344-0.94c0.175-0.265,0.433-0.475,0.773-0.628c0.34-0.154,0.8-0.231,1.38-0.231h3.878
		c0.823,0,1.616,0.071,2.38,0.215c0.762,0.144,1.438,0.396,2.024,0.757c0.587,0.362,1.057,0.854,1.407,1.478
		s0.526,1.411,0.526,2.363c0,0.823-0.152,1.538-0.456,2.144c-0.305,0.604-0.734,1.107-1.289,1.509
		c-0.556,0.401-1.224,0.7-2.004,0.897c-0.78,0.196-1.644,0.295-2.589,0.295h-2.46V35.88z M41.415,29.628
		c0.458,0,0.877-0.039,1.257-0.118s0.704-0.209,0.972-0.393c0.27-0.182,0.479-0.424,0.629-0.725s0.226-0.705,0.226-1.214
		c0-0.501-0.071-0.897-0.215-1.187c-0.144-0.291-0.342-0.525-0.597-0.704c-0.254-0.179-0.559-0.308-0.913-0.387
		c-0.354-0.079-0.746-0.118-1.176-0.118H39.61v4.845H41.415z"/>
</g>
</svg>
